<?xml version="1.0" encoding="UTF-8" standalone="no"?>
<svg
   xmlns:dc="http://purl.org/dc/elements/1.1/"
   xmlns:cc="http://creativecommons.org/ns#"
   xmlns:rdf="http://www.w3.org/1999/02/22-rdf-syntax-ns#"
   xmlns:svg="http://www.w3.org/2000/svg"
   xmlns="http://www.w3.org/2000/svg"
   xmlns:sodipodi="http://sodipodi.sourceforge.net/DTD/sodipodi-0.dtd"
   xmlns:inkscape="http://www.inkscape.org/namespaces/inkscape"
   id="svg821"
   version="1.1"
   viewBox="0 0 2645.8331 1058.3333"
   height="4000"
   width="10000"
   sodipodi:docname="logo_text_new_plain.svg"
   inkscape:version="0.92.5 (2060ec1f9f, 2020-04-08)"
   inkscape:export-filename="/home/toshiba/Downloads/logo_text_new_plain.png"
   inkscape:export-xdpi="24"
   inkscape:export-ydpi="24">
  <sodipodi:namedview
     pagecolor="#ffffff"
     bordercolor="#666666"
     borderopacity="1"
     objecttolerance="10"
     gridtolerance="10"
     guidetolerance="10"
     inkscape:pageopacity="0"
     inkscape:pageshadow="2"
     inkscape:window-width="1864"
     inkscape:window-height="1053"
     id="namedview13"
     showgrid="false"
     inkscape:zoom="0.0324"
     inkscape:cx="-725.30864"
     inkscape:cy="1891.9753"
     inkscape:window-x="56"
     inkscape:window-y="-10"
     inkscape:window-maximized="1"
     inkscape:current-layer="svg821" />
  <defs
     id="defs815" />
  <metadata
     id="metadata818">
    <rdf:RDF>
      <cc:Work
         rdf:about="">
        <dc:format>image/svg+xml</dc:format>
        <dc:type
           rdf:resource="http://purl.org/dc/dcmitype/StillImage" />
        <dc:title />
      </cc:Work>
    </rdf:RDF>
  </metadata>
  <g
     transform="matrix(1.5,0,0,1.5,-356.05793,872.24197)"
     id="layer1">
    <g
       aria-label="كية"
       style="font-style:normal;font-weight:normal;font-size:17.04456329px;line-height:1.25;font-family:sans-serif;letter-spacing:0px;word-spacing:0px;fill:#231f20;fill-opacity:1;stroke:none;stroke-width:0.42611408"
       id="text5414">
      <path
         d="m 908.45557,-133.12896 h 143.51003 q 0,-35.56 -7.1967,-61.80667 -7.1967,-26.67 -21.59,-45.72 -14.3933,-19.47334 -36.40667,-32.59667 -21.59,-13.12333 -51.22333,-22.43667 v -20.32 l 155.7867,-97.79 v 27.51667 l -123.61337,76.62333 q 27.09334,11.00667 47.83667,26.24667 20.7433,14.81667 34.7133,36.40667 13.97,21.16666 21.1667,50.37666 7.1967,29.21001 7.1967,68.58001 v 16.51 H 908.45557 Z"
         style="font-style:normal;font-variant:normal;font-weight:normal;font-stretch:normal;font-size:423.33334351px;font-family:TheSansArabic;-inkscape-font-specification:TheSansArabic;fill:#231f20;fill-opacity:1;stroke-width:0.42611408"
         id="path820" />
      <path
         d="m 752.66972,-133.12896 h 63.92334 v -177.37667 h 27.09333 v 177.37667 h 70.69667 v 21.59 H 752.66972 Z m 54.18667,84.666665 q 0,7.62 -5.50333,13.123334 -5.08,5.503333 -13.12334,5.503333 -7.62,0 -13.12333,-5.503333 -5.08,-5.080001 -5.08,-13.123334 0,-7.62 5.08,-13.123334 5.50333,-5.503333 13.12333,-5.503333 8.04334,0 13.12334,5.08 5.50333,5.503333 5.50333,13.546667 z m 57.15,0 q 0,7.62 -5.50333,13.123334 -5.50333,5.503333 -13.12333,5.503333 -7.62,0 -13.12334,-5.503333 -5.08,-5.080001 -5.08,-13.123334 0,-7.62 5.08,-13.123334 5.50334,-5.503333 13.12334,-5.503333 7.62,0 13.12333,5.08 5.50333,5.503333 5.50333,13.546667 z"
         style="font-style:normal;font-variant:normal;font-weight:normal;font-stretch:normal;font-size:423.33334351px;font-family:TheSansArabic;-inkscape-font-specification:TheSansArabic;fill:#231f20;fill-opacity:1;stroke-width:0.42611408"
         id="path822" />
      <path
         d="m 632.86677,-111.53896 q -30.48,0 -51.64667,-6.77334 -20.74333,-7.19666 -33.86666,-19.89666 -12.7,-13.12334 -18.62667,-31.32667 -5.92667,-18.62667 -5.92667,-41.48667 0,-20.74333 6.35,-39.37 6.77334,-19.05 19.47334,-33.02 13.12333,-14.39333 32.17333,-22.86 19.47334,-8.46667 45.29667,-8.46667 16.51,0 31.32667,2.54 15.24,2.11667 26.67,4.65667 13.12333,3.38667 24.55333,7.62 v 166.79334 h 50.37667 v 21.59 z m 49.10667,-170.60334 q -7.19667,-2.96333 -16.08667,-5.50333 -8.46666,-2.11667 -19.05,-3.81 -10.58333,-1.69334 -24.13,-1.69334 -33.44333,0 -52.91667,21.59 -19.05,21.16667 -19.05,57.57334 0,41.48667 19.89667,61.38333 20.32,19.47334 66.88667,19.47334 h 44.45 z m -30.05667,-71.96667 q -7.62,0 -13.12333,-5.08 -5.08,-5.50333 -5.08,-13.54667 0,-7.62 5.08,-12.7 5.50333,-5.50333 13.12333,-5.50333 7.62,0 13.12334,5.08 5.50333,5.08 5.50333,13.12333 0,7.62 -5.50333,13.12334 -5.50334,5.50333 -13.12334,5.50333 z m -57.15,0 q -7.62,0 -13.12333,-5.08 -5.08,-5.50333 -5.08,-13.54667 0,-7.62 5.08,-12.7 5.50333,-5.50333 13.12333,-5.50333 8.04334,0 13.12334,5.08 5.50333,5.08 5.50333,13.12333 0,7.62 -5.50333,13.12334 -5.08,5.50333 -13.12334,5.50333 z"
         style="font-style:normal;font-variant:normal;font-weight:normal;font-stretch:normal;font-size:423.33334351px;font-family:TheSansArabic;-inkscape-font-specification:TheSansArabic;fill:#231f20;fill-opacity:1;stroke-width:0.42611408"
         id="path824" />
    </g>
    <g
       aria-label="ذ"
       style="font-style:normal;font-weight:normal;font-size:17.04456329px;line-height:1.25;font-family:sans-serif;letter-spacing:0px;word-spacing:0px;fill:#231f20;fill-opacity:1;stroke:none;stroke-width:0.42611408"
       id="text881">
      <path
         d="m 1135.9944,-155.81081 h 125.6771 q -3.7207,-94.05111 -99.8389,-118.44239 l 13.4359,-46.7155 q 71.1068,18.81023 105.0065,60.35808 35.9668,44.23502 35.9668,120.92285 v 27.90528 h -180.2474 z m 64.2855,-190.58269 q -11.9889,0 -20.6706,-8.26823 -8.4749,-8.47494 -8.4749,-20.87728 0,-11.98893 8.4749,-20.67057 8.6817,-8.47494 20.6706,-8.47494 12.1957,0 20.6706,8.47494 8.6816,8.68164 8.6816,20.67057 0,11.98893 -8.6816,20.67057 -8.4749,8.47494 -20.6706,8.47494 z"
         style="font-style:normal;font-variant:normal;font-weight:normal;font-stretch:normal;font-size:423.33334351px;font-family:'Bahij TheSansArabic';-inkscape-font-specification:'Bahij TheSansArabic';fill:#231f20;fill-opacity:1;stroke-width:0.42611408"
         id="path827" />
    </g>
  </g>
  <path
     id="path31-7"
     d="m 1976.9756,550.3918 c -15.1334,-14.25638 -22.0433,-36.18814 -16.1529,-58.09067 8.2016,-30.35624 40.0176,-48.86048 71.6729,-40.29898 42.2064,11.59986 57.5078,65.46641 24.8313,97.69353 -24.4494,24.55905 -32.6748,61.07422 -22.595,93.47307 4.2277,13.61877 11.6273,26.32403 21.9866,37.06692 15.084,14.25096 22.0158,36.16077 16.076,58.05782 -8.5596,30.66323 -40.2148,48.72897 -71.0095,40.46889 -31.1602,-8.34403 -49.5274,-40.13637 -40.9623,-71.84279 2.8429,-10.46893 8.5067,-19.5566 16.0469,-26.59981 35.0499,-35.82826 34.8544,-94.30257 0.106,-129.92798"
     style="fill:#0077f7;fill-opacity:1;fill-rule:evenodd;stroke:none;stroke-width:0.66145837" />
  <path
     id="path35-7"
     d="m 2116.6669,550.3333 c -24.3033,-22.86722 -24.2521,-62.14852 -0.079,-84.82024 35.0518,-35.83004 34.8581,-94.30255 0.1096,-129.93163 -15.1351,-14.25454 -22.0414,-36.18631 -16.1547,-58.08518 8.2272,-30.38546 40.0177,-48.86047 71.7004,-40.33368 42.2082,11.60899 57.4804,65.49382 24.802,97.73008 -24.4458,24.55173 -32.6455,61.04133 -22.5931,93.46394 4.2588,13.59134 11.6254,26.32579 21.9847,37.07243 24.2831,22.89827 24.1735,60.73621 0.6157,84.24288 -24.4531,24.55539 -32.704,61.04501 -22.595,93.47313 4.2205,13.61139 11.6273,26.32393 21.9555,37.03955 15.0841,14.25446 22.0433,36.18447 16.1036,58.08517 -8.5908,30.63206 -40.2132,48.72704 -71.0115,40.46339 -31.1547,-8.33861 -49.5237,-40.13274 -40.964,-71.84464 2.8154,-10.49263 8.5048,-19.55474 16.0176,-26.62544 35.081,-35.7935 34.8617,-94.29522 0.1078,-129.92976"
     style="fill:#00cbfb;fill-opacity:1;fill-rule:evenodd;stroke:none;stroke-width:0.66145837" />
  <path
     id="path37-6"
     d="m 1920.5379,682.47914 c 22.3446,22.83795 22.1528,59.21241 -0.9647,82.22394 -22.2625,22.15285 -59.0809,22.29167 -82.2003,-0.94091 -22.1839,-22.2862 -22.2917,-59.08093 0.9062,-82.22398 22.2132,-22.09984 59.1102,-22.20767 81.7855,0.46773 0.1408,0.14063 0.3051,0.30507 0.4733,0.47321"
     style="fill:#001f73;fill-opacity:1;fill-rule:evenodd;stroke:none;stroke-width:0.66145837" />
</svg>
