<?xml version="1.0" encoding="UTF-8" standalone="no"?>
<svg
   xmlns:dc="http://purl.org/dc/elements/1.1/"
   xmlns:cc="http://creativecommons.org/ns#"
   xmlns:rdf="http://www.w3.org/1999/02/22-rdf-syntax-ns#"
   xmlns:svg="http://www.w3.org/2000/svg"
   xmlns="http://www.w3.org/2000/svg"
   viewBox="0 0 682.61334 407.86667"
   height="407.86667"
   width="682.61334"
   xml:space="preserve"
   id="svg2"
   version="1.1"><metadata
     id="metadata8"><rdf:RDF><cc:Work
         rdf:about=""><dc:format>image/svg+xml</dc:format><dc:type
           rdf:resource="http://purl.org/dc/dcmitype/StillImage" /><dc:title></dc:title></cc:Work></rdf:RDF></metadata><defs
     id="defs6" /><g
     transform="matrix(1.3333333,0,0,-1.3333333,0,407.86667)"
     id="g10"><g
       transform="scale(0.1)"
       id="g12"><path
         id="path14"
         style="fill:#100f0d;fill-opacity:1;fill-rule:nonzero;stroke:none"
         d="m 4861.31,898 c -72,92 -474,44 -656,22 -54,-7 -63,42 -13,77 320,224 846,160 908,85 61,-77 -17,-603 -317,-855 -46,-39 -91,-19 -70,32 68,169 220,548 148,639 z m -233,-265 c -561,-414 -1374,-633 -2074,-633 -981,0 -1864.997,363 -2532.0014,966 -51.9961,47 -5,112 58.0039,74 C 802.309,622 1692.31,368 2613.31,368 c 622,0 1304,130 1933,395 93,42 173,-62 82,-130 z m -322,827 c -88,0 -177,11 -262,31 -85,20 -152,43 -196,68 -27,15 -46,32 -52,47 -7,15 -11,31 -11,47 v 87 c 0,36 14,53 39,53 l 31,-5 c 10,-4 26,-11 43,-17 58,-26 121,-46 187,-59 68,-14 134,-21 203,-21 107,0 191,19 248,57 57,34 91,96 89,162 1,44 -16,87 -46,119 -31,32 -89,61 -172,88 l -247,77 c -124,39 -217,97 -272,173 -55,71 -85,157 -86,247 0,72 16,134 47,189 31,54 72,102 123,139 51,39 109,68 177,88 68,21 140,29 215,29 37,0 77,-2 114,-7 39,-5 75,-12 111,-19 33,-8 66,-17 97,-27 31,-10 55,-21 72,-31 20,-10 37,-25 51,-43 12,-17 17,-37 16,-57 v -80 c 0,-36 -14,-54 -39,-54 -23,3 -45,9 -65,20 -103,46 -214,68 -327,67 -97,0 -174,-15 -227,-47 -53,-32 -80,-82 -80,-152 0,-47 17,-88 51,-121 34,-32 97,-65 188,-94 l 242,-76 c 123,-39 212,-94 264,-164 52,-69 78,-149 78,-238 0,-72 -16,-139 -44,-197 -31,-57 -72,-108 -124,-150 -53,-43 -116,-72 -189,-95 -79,-22 -159,-35 -247,-34 z m -2188,46 c -31,0 -52,5 -65,17 -13,10 -26,34 -36,66 l -400,1317 c -7,22 -13,45 -15,68 0,27 13,43 40,43 h 168 c 32,0 54,-5 66,-17 14,-10 24,-34 34,-67 l 287,-1127 266,1127 c 8,34 18,57 32,67 21,12 44,18 68,17 h 136 c 32,0 55,-5 68,-17 13,-10 26,-34 32,-67 l 269,-1141 294,1141 c 11,34 23,57 34,67 20,12 43,18 67,17 h 158 c 27,0 43,-13 43,-43 l -3,-27 -12,-43 -411,-1316 c -10,-34 -22,-57 -36,-67 -19,-12 -42,-18 -64,-17 h -147 c -32,0 -54,5 -68,17 -13,12 -25,34 -32,68 l -264,1098 -263,-1097 c -8,-34 -18,-57 -32,-68 -13,-12 -37,-17 -68,-17 z M 751.313,1690 c 55.996,0 114,10 175,31 61.996,20 115.997,57 161.997,108 27,32 48,68 58,109 10,41 17,91 17,148 v 72 c -52,12 -103,23 -157,29 -51.997,7 -105.997,10 -159.997,10 -114.004,0 -197,-23 -253.004,-68 -56.996,-46 -82.996,-111 -82.996,-196 0,-80 20,-139 62.996,-180 40,-42 100,-63 178.004,-63 z m 690.997,259 c 0,-63 7,-114 19,-152 13,-37 31,-78 54,-123 l 12,-39 c 0,-17 -11,-34 -32,-52 l -107,-71 c -13,-10 -28,-15 -44,-16 -17,0 -34,8 -51,24 -23,24 -43,51 -62,80 -19,32 -37,66 -52,100 -133,-157 -299.997,-235 -501.001,-235 -142.996,0 -256.996,41 -341,123 -82.996,82 -125.996,191 -125.996,327 0,144 50.996,263 155,351 104,88 241.996,132 416.996,132 57.004,0 117.004,-5 180,-13 63.001,-8 128.001,-23 196.001,-37 v 124 c 0,129 -27,220 -80,272 -54,52 -146.001,78 -277.001,78 -59,0 -120.996,-7 -184,-22 -62.996,-16 -123.996,-34 -182.996,-58 -20,-9 -40,-16 -60,-23 l -27.004,-5 c -23.996,0 -36,17 -36,53 v 83 c 0,27 3.004,47 12.004,59 12,16 28.996,28 47,36 60,31 130.996,57 214,77 86.996,22 176.996,33 266,32 202.997,0 350.997,-46 446.997,-138 93,-92 141,-231 141,-418 v -552 l 3,3" /></g></g></svg>