<?xml version="1.0" encoding="UTF-8" standalone="no"?>
<svg
   xmlns:dc="http://purl.org/dc/elements/1.1/"
   xmlns:cc="http://creativecommons.org/ns#"
   xmlns:rdf="http://www.w3.org/1999/02/22-rdf-syntax-ns#"
   xmlns:svg="http://www.w3.org/2000/svg"
   xmlns="http://www.w3.org/2000/svg"
   viewBox="0 0 682.74664 547.41333"
   height="547.41333"
   width="682.74664"
   xml:space="preserve"
   id="svg2"
   version="1.1"><metadata
     id="metadata8"><rdf:RDF><cc:Work
         rdf:about=""><dc:format>image/svg+xml</dc:format><dc:type
           rdf:resource="http://purl.org/dc/dcmitype/StillImage" /><dc:title></dc:title></cc:Work></rdf:RDF></metadata><defs
     id="defs6" /><g
     transform="matrix(1.3333333,0,0,-1.3333333,0,547.41333)"
     id="g10"><g
       transform="scale(0.1)"
       id="g12"><path
         id="path14"
         style="fill:#100f0d;fill-opacity:1;fill-rule:nonzero;stroke:none"
         d="m 2523.72,3220.06 c 265.01,9 538.01,-78 743.01,-245 257.99,-215 403.99,-535 397.99,-870 v -111 c 753,15 753,-1123.001 0,-1108.001 H 2556.73 l -2.01,-2 v 8.011 H 1446.73 c -78.01,0 -156.01,16.989 -228.01,48.989 -352.997,159.001 -436.993,623.001 -163,897.001 274,273 737,189.01 897,-163 l 643,643 c -213,278 -522,469 -866,537 l 12.01,4 c 201.99,222 483.99,352 782.99,361 z m 77,885 c -917,21 -1729.997,-586 -1969.997,-1471 -827,-544 -837,-1730.001 -52,-2334.001 l 1,2.011 -2,-7.011 c 251,-189 555.997,-290.00041 869.997,-289.00041 h 1103 l 7,-5.9999962 h 1108 C 5092.72,-11.9414 5665.72,1835.06 4483.73,2634.06 c -102,376 -311.01,713 -602,971 l -9.01,-9 1.01,11 c -353.01,311 -804.01,488 -1273.01,498 v 0" /></g></g></svg>