<?xml version="1.0" encoding="UTF-8" standalone="no"?>
<svg
   xmlns:dc="http://purl.org/dc/elements/1.1/"
   xmlns:cc="http://creativecommons.org/ns#"
   xmlns:rdf="http://www.w3.org/1999/02/22-rdf-syntax-ns#"
   xmlns:svg="http://www.w3.org/2000/svg"
   xmlns="http://www.w3.org/2000/svg"
   viewBox="0 0 682.66669 273.86667"
   height="273.86667"
   width="682.66669"
   xml:space="preserve"
   id="svg2"
   version="1.1"><metadata
     id="metadata8"><rdf:RDF><cc:Work
         rdf:about=""><dc:format>image/svg+xml</dc:format><dc:type
           rdf:resource="http://purl.org/dc/dcmitype/StillImage" /><dc:title></dc:title></cc:Work></rdf:RDF></metadata><defs
     id="defs6" /><g
     transform="matrix(1.3333333,0,0,-1.3333333,0,273.86667)"
     id="g10"><g
       transform="scale(0.1)"
       id="g12"><path
         id="path14"
         style="fill:#100f0d;fill-opacity:1;fill-rule:nonzero;stroke:none"
         d="m 4163,1638 h 957 v 143 H 4211 Z M 3128,1365 h 769 l -49,143 h -719 v -143 z m 569,-547 h 572 l 48,143 h -669 z m 94,-272 h 381 l 50,143 h -481 z m 97,-272 h 189 l 51,143 h -290 z m 94,-273 49,142 h -98 z m 324,2053 -49,-142 h 863 v 142 z m 529,-545 h -718 l -49,-143 h 768 v 143 z m -427,-417 h 427 v 143 h -813 l -41,-116 -40,116 h -814 v -143 h 427 v 132 l 46,-132 h 762 l 45,132 v -132 z m 0,-130 h 427 V 819 h -427 z m 0,-272 h 427 V 547 h -427 z m 0,-274 h 712 V 273 h -712 z m 0,-273 h 712 V 1 h -712 z m -749,1911 h -814 v -142 h 863 z m 94,-273 h -908 v -143 h 957 z M 3128,962 h 427 V 819 h -427 z m 0,-272 h 427 V 547 H 3128 Z M 2845,416 h 710 V 273 h -710 z m 0,-273 h 710 V 1 H 2845 Z M 1137,1 2197,0 c 143,0 271,54 367,142 H 1137 Z M 2276,690 V 547 h 465 c 0,49 -7,97 -19,143 z m -854,0 h 427 V 547 h -427 z m 854,675 h 446 c 12,46 19,93 19,143 h -465 z m -854,144 h 427 v -143 h -427 z m 776,545 H 1137 v -142 h 1426 c -99,91 -230,142 -365,142 z m 470,-273 H 1137 v -143 h 1587 c -11,50 -31,98 -56,143 z M 1422,1236 v -143 h 1128 c 48,40 88,88 120,143 z M 2549,962 H 1423 V 819 h 1247 c -33,54 -73,102 -121,143 z M 1137,274 h 1531 c 26,44 46,92 58,143 H 1137 Z M 0,2054 H 996 V 1912 H 0 Z M 0,1781 H 996 V 1638 H 0 Z M 282.996,1509 H 711 V 1366 H 282.996 Z m 0,-273 H 711 V 1093 H 282.996 Z m 0,-274 H 711 V 819 H 282.996 Z m 0,-272 H 711 V 547 H 282.996 Z M 0,416 H 996 V 273 H 0 Z M 0,143 H 996 V 1 H 0 v 142" /></g></g></svg>