<?xml version="1.0" encoding="UTF-8" standalone="no"?>
<svg
   xmlns:dc="http://purl.org/dc/elements/1.1/"
   xmlns:cc="http://creativecommons.org/ns#"
   xmlns:rdf="http://www.w3.org/1999/02/22-rdf-syntax-ns#"
   xmlns:svg="http://www.w3.org/2000/svg"
   xmlns="http://www.w3.org/2000/svg"
   xmlns:sodipodi="http://sodipodi.sourceforge.net/DTD/sodipodi-0.dtd"
   xmlns:inkscape="http://www.inkscape.org/namespaces/inkscape"
   viewBox="0 0 500 500"
   version="1.1"
   id="svg357"
   sodipodi:docname="world.svg"
   inkscape:version="0.92.5 (2060ec1f9f, 2020-04-08)">
  <metadata
     id="metadata363">
    <rdf:RDF>
      <cc:Work
         rdf:about="">
        <dc:format>image/svg+xml</dc:format>
        <dc:type
           rdf:resource="http://purl.org/dc/dcmitype/StillImage" />
        <dc:title></dc:title>
      </cc:Work>
    </rdf:RDF>
  </metadata>
  <defs
     id="defs361" />
  <sodipodi:namedview
     pagecolor="#ffffff"
     bordercolor="#666666"
     borderopacity="1"
     objecttolerance="10"
     gridtolerance="10"
     guidetolerance="10"
     inkscape:pageopacity="0"
     inkscape:pageshadow="2"
     inkscape:window-width="1864"
     inkscape:window-height="1053"
     id="namedview359"
     showgrid="false"
     inkscape:zoom="0.472"
     inkscape:cx="-146.18644"
     inkscape:cy="250"
     inkscape:window-x="56"
     inkscape:window-y="-10"
     inkscape:window-maximized="1"
     inkscape:current-layer="svg357" />
  <g
     transform="translate(-2.1186461,0.28367542)"
     id="freepik--background-simple--inject-15">
    <path
       inkscape:connector-curvature="0"
       d="m 370,368 a 106.23,106.23 0 0 1 -11,5.23 C 326.63,386.39 283.87,384.98 256,362.4 239.42,348.95 233.91,326.4 222.31,308.47 207.75,286 182.92,271 161,256.48 131.43,236.89 105.17,215.84 97.5,179.84 c -6.39,-29.93 1.4,-63.37 25.34,-83.48 22.78,-19.13 51.89,-31.93 80.66,-38.83 24.76,-5.94 46.77,-2.58 62.71,19 10.42,14.09 15.55,31.26 21.23,47.83 6.42,18.74 14.86,42.19 32.2,53.54 16.56,10.84 39,10.48 57,18.4 29.6,13.08 48.47,45.44 48.9,77.8 0.51,38.42 -22.21,75.67 -55.54,93.9 z"
       style="fill:#407bff"
       id="path2" />
    <path
       inkscape:connector-curvature="0"
       d="m 370,368 a 106.23,106.23 0 0 1 -11,5.23 C 326.63,386.39 283.87,384.98 256,362.4 239.42,348.95 233.91,326.4 222.31,308.47 207.75,286 182.92,271 161,256.48 131.43,236.89 105.17,215.84 97.5,179.84 c -6.39,-29.93 1.4,-63.37 25.34,-83.48 22.78,-19.13 51.89,-31.93 80.66,-38.83 24.76,-5.94 46.77,-2.58 62.71,19 10.42,14.09 15.55,31.26 21.23,47.83 6.42,18.74 14.86,42.19 32.2,53.54 16.56,10.84 39,10.48 57,18.4 29.6,13.08 48.47,45.44 48.9,77.8 0.51,38.42 -22.21,75.67 -55.54,93.9 z"
       style="opacity:0.9;fill:#ffffff"
       id="path4" />
  </g>
  <g
     transform="translate(-2.1186461,0.28367542)"
     id="freepik--Shadow--inject-15">
    <ellipse
       id="freepik--path--inject-15"
       cx="250"
       cy="416.23999"
       rx="193.89"
       ry="11.32"
       style="fill:#f5f5f5" />
  </g>
  <g
     transform="translate(-2.1186461,0.28367542)"
     id="freepik--data-world--inject-15">
    <path
       inkscape:connector-curvature="0"
       d="m 424.25,200.55 c -0.23,-3.55 -0.61,-7.14 -1.12,-10.66 l 1.12,-0.16 c 0.51,3.55 0.89,7.17 1.13,10.75 z"
       style="fill:#407bff"
       id="path9" />
    <path
       inkscape:connector-curvature="0"
       d="m 420.31,175.78 a 136.44,136.44 0 0 0 -11.6,-30 l 1,-0.53 a 137.69,137.69 0 0 1 11.69,30.25 z"
       style="fill:#407bff"
       id="path11" />
    <circle
       cx="287.26001"
       cy="209.74001"
       r="134.47"
       transform="rotate(-45,287.2551,209.73504)"
       style="fill:#407bff"
       id="circle13" />
    <g
       style="opacity:0.2"
       id="g323">
      <path
         inkscape:connector-curvature="0"
         d="m 298.29,342.38 h -0.13 l -0.93,0.07 1.73,-0.31 c -1.79,0.12 -4.18,0.25 -6,0.33 l -1,0.28 -2.31,0.06 a 3.78,3.78 0 0 0 1,-0.87 c 2.32,-0.06 5.43,-0.19 7.75,-0.3 l -0.72,0.37 3.34,-0.25 -2.75,0.61"
         style="opacity:0.4;fill:#ffffff"
         id="path15" />
      <path
         inkscape:connector-curvature="0"
         d="m 275.54,341.6 c -1.94,-0.15 -4.53,-0.37 -6.47,-0.56 -4.61,-2.45 -4.79,-2.55 -8.6,-6.57 2.87,0.27 6.7,0.61 9.57,0.82 2.73,4.2 2.84,4.36 5.5,6.31"
         style="fill:#ffffff"
         id="path17" />
      <path
         inkscape:connector-curvature="0"
         d="m 263.68,338.86 c -5.35,-0.68 -6.17,-0.79 -10.49,-1.55 -9.37,-5.46 -13.28,-8.79 -21.17,-20.32 8.2,1.38 9.46,1.6 17.07,2.52 5.1,10.29 7.63,14.08 14.59,19.35"
         style="fill:#ffffff"
         id="path19" />
      <path
         inkscape:connector-curvature="0"
         d="m 271.91,342 c -1.22,-0.16 -2.85,-0.36 -4.07,-0.54 l -1.84,-0.28 -1.45,-0.27 c 1.61,0.23 3.75,0.53 5.36,0.73 l 2,0.36"
         style="fill:#ffffff"
         id="path21" />
      <path
         inkscape:connector-curvature="0"
         d="m 288.58,342.83 h -2.35 c -3.77,-0.07 -3.85,-0.07 -5.77,-0.17 -3.93,-0.24 -4,-0.25 -6,-0.44 l -1.21,-0.13 a 32.74,32.74 0 0 1 -4.15,-1 c 1.94,0.19 4.53,0.41 6.47,0.56 4.78,0.26 7.41,0.4 13.63,0.37 -0.15,0.28 -0.29,0.8 -0.59,0.86"
         style="opacity:0.4;fill:#ffffff"
         id="path23" />
      <path
         inkscape:connector-curvature="0"
         d="m 279,341.11 c 0,0.09 0.19,0.49 -1.24,0.44 -1.76,-0.12 -3,-0.75 -2.52,-1.1 0.66,-0.5 3.4,0 3.76,0.66"
         style="fill:#ffffff"
         id="path25" />
      <path
         inkscape:connector-curvature="0"
         d="m 284.93,341.28 c 0,0.05 -0.09,0.48 -1.62,0.47 -1.53,-0.01 -2.44,-0.56 -2.07,-0.93 0.65,-0.63 3.75,-0.25 3.69,0.46"
         style="opacity:0.4;fill:#ffffff"
         id="path27" />
      <path
         inkscape:connector-curvature="0"
         d="m 290.94,341.26 c 0,0.05 -0.4,0.49 -2,0.53 -1.39,0 -2,-0.4 -1.65,-0.75 0.65,-0.72 3.76,-0.64 3.69,0.09 a 0.5,0.5 0 0 1 -0.05,0.13"
         style="opacity:0.4;fill:#ffffff"
         id="path29" />
      <path
         inkscape:connector-curvature="0"
         d="m 304.79,329.71 c -3.52,0.15 -8.21,0.34 -11.73,0.42 0.63,-5.74 0.74,-6.78 1.25,-13.49 4.25,-0.12 9.9,-0.31 14.14,-0.51 a 102.54,102.54 0 0 1 -3.66,13.58"
         style="opacity:0.4;fill:#ffffff"
         id="path31" />
      <path
         inkscape:connector-curvature="0"
         d="m 290.61,325.83 c -3.78,0 -8.83,-0.05 -12.61,-0.13 -0.79,-6.53 -0.93,-7.71 -1.55,-15.08 4.44,0.08 10.37,0.15 14.81,0.15 -0.29,7.75 -0.34,9.15 -0.65,15.06"
         style="opacity:0.4;fill:#ffffff"
         id="path33" />
      <path
         inkscape:connector-curvature="0"
         d="m 307.65,334.22 c -3.12,0.19 -7.28,0.43 -10.4,0.56 l 0.72,-2.52 c 3.34,-0.15 7.79,-0.38 11.13,-0.6 l -1.45,2.56"
         style="opacity:0.4;fill:#ffffff"
         id="path35" />
      <path
         inkscape:connector-curvature="0"
         d="m 339.64,302.43 c -3.75,0.48 -8.75,1.11 -12.51,1.51 l 1.51,-6.57 c 3.9,-0.45 9.09,-1.05 13,-1.57 l -2,6.63"
         style="opacity:0.4;fill:#ffffff"
         id="path37" />
      <path
         inkscape:connector-curvature="0"
         d="m 291.28,310.28 c -4.46,0 -10.41,-0.06 -14.87,-0.15 -0.63,-9.17 -0.66,-9.53 -0.94,-15.3 4.87,0.08 11.35,0.16 16.22,0.16 -0.25,10.32 -0.25,10.32 -0.41,15.29"
         style="opacity:0.4;fill:#ffffff"
         id="path39" />
      <path
         inkscape:connector-curvature="0"
         d="m 274.5,321.55 c -8.95,-0.43 -14.36,-0.69 -25.23,-1.89 -3.3,-8.15 -4.67,-11.52 -7.5,-24 10.23,1.1 16.42,1.73 30.23,2.34 0.75,9.47 1.13,14.23 2.46,23.58"
         style="fill:#ffffff"
         id="path41" />
      <path
         inkscape:connector-curvature="0"
         d="m 322.71,313.84 c -9.6,0.81 -15.4,1.3 -28.15,1.58 0.53,-8.41 0.8,-12.63 1.27,-25.89 11.53,-0.33 18.5,-0.53 32.76,-1.83 -1.74,10.32 -2.61,15.5 -5.88,26.14"
         style="opacity:0.4;fill:#ffffff"
         id="path43" />
      <path
         inkscape:connector-curvature="0"
         d="m 237.64,291.56 a 281.94,281.94 0 0 1 -29.53,-5.19 c -1.14,-4 -2.62,-9.39 -3.55,-13.46 a 292.74,292.74 0 0 0 30.86,5.43 c 0.61,4 1.46,9.27 2.22,13.22"
         style="opacity:0.4;fill:#ffffff"
         id="path45" />
      <path
         inkscape:connector-curvature="0"
         d="m 217.52,274 a 243.56,243.56 0 0 1 -24.33,-5.72 c -2.22,-11.82 -3.33,-17.75 -3.53,-32.45 a 249,249 0 0 0 25.27,5.93 c 0.29,11.1 0.5,19.11 2.59,32.24"
         style="opacity:0.3;fill:#ffffff"
         id="path47" />
      <path
         inkscape:connector-curvature="0"
         d="m 332.62,327.9 c -7.09,1.12 -9,1.42 -17.92,2.35 l 1.35,-2.39 c 8,-0.84 10.1,-1.07 18.79,-2.46 l -2.22,2.5"
         style="fill:#ffffff"
         id="path49" />
      <path
         inkscape:connector-curvature="0"
         d="m 325,334.56 c -6.22,1 -7.18,1.13 -12.73,1.74 l 0.2,-0.19 -2.21,0.22 1.31,-1.53 c 6.73,-0.72 8.54,-0.91 15.89,-2.08 l -2.46,1.84"
         style="fill:#ffffff"
         id="path51" />
      <path
         inkscape:connector-curvature="0"
         d="m 227.12,272.45 c 0,1.1 -0.64,2.89 -3.27,2.6 -3.84,-0.79 -5.43,-5.15 -3.23,-6.73 2.2,-1.58 6.44,1 6.5,4.13"
         style="fill:#ffffff"
         id="path53" />
      <path
         inkscape:connector-curvature="0"
         d="m 317.65,318.66 a 4.88,4.88 0 0 1 -4,2.24 c -2.68,0.12 -3.4,-1.48 -2.21,-2.87 1.75,-2 6.08,-2.24 6.35,-0.27 a 1.59,1.59 0 0 1 -0.17,0.9"
         style="fill:#ffffff"
         id="path55" />
      <path
         inkscape:connector-curvature="0"
         d="m 226,260.55 a 2.87,2.87 0 0 1 -3.52,2.81 c -3.9,-0.81 -5.28,-5.45 -2.92,-7.15 2.36,-1.7 6.55,1 6.44,4.34"
         style="fill:#ffffff"
         id="path57" />
      <path
         inkscape:connector-curvature="0"
         d="m 365.36,316.07 a 92.13,92.13 0 0 1 -12,4.44 c 2.47,-2.63 5.73,-6.17 8,-9 a 103.85,103.85 0 0 0 12.1,-4.35 l 1.35,-0.62 c -2.76,2.92 -6.06,7.32 -9.43,9.5"
         style="opacity:0.4;fill:#ffffff"
         id="path59" />
      <path
         inkscape:connector-curvature="0"
         d="m 397.25,284.65 c -1.8,2.44 -4.12,5.76 -6,8.13 l -3.66,4.38 a 26,26 0 0 1 -5.5,4.56 c 2.64,-3.36 6.13,-7.88 8.55,-11.41 4.52,-3.25 4.61,-3.31 7.21,-6.52 l -0.59,0.86"
         style="opacity:0.4;fill:#ffffff"
         id="path61" />
      <path
         inkscape:connector-curvature="0"
         d="m 418.18,233.75 c -1.26,5.64 -3.15,13.11 -4.82,18.63 1.61,-5.52 3.51,-13 4.68,-18.59 l 0.44,-1.7 -0.3,1.66"
         style="opacity:0.4;fill:#ffffff"
         id="path63" />
      <path
         inkscape:connector-curvature="0"
         d="m 377.78,307.26 c 2.06,-2.08 4.89,-4.77 6.86,-6.93 l 1.15,-1.15 c -2.39,2.44 -5.52,5.74 -8,8.08"
         style="opacity:0.4;fill:#ffffff"
         id="path65" />
      <polyline
         points="367.01 316.25 369.49 314.34 370.08 313.88 367.01 316.25"
         style="opacity:0.4;fill:#ffffff"
         id="polyline67" />
      <path
         inkscape:connector-curvature="0"
         d="m 378.53,247.53 c -0.43,4.6 -1,10.74 -1.7,15.32 -4.09,1 -9.56,2.25 -13.68,3.11 1.46,-13.25 1.54,-14 1.75,-25.86 4.2,-0.9 9.8,-2.15 14,-3.18 -0.1,3.18 -0.1,7.43 -0.35,10.61"
         style="opacity:0.4;fill:#ffffff"
         id="path69" />
      <path
         inkscape:connector-curvature="0"
         d="m 395.4,256.75 a 144.47,144.47 0 0 1 -18.57,6.1 c 0.59,-4.59 1.33,-10.71 1.7,-15.32 10.5,-3 10.7,-3 18.93,-6.21 -0.53,4.64 -1.27,10.83 -2.06,15.43"
         style="opacity:0.4;fill:#ffffff"
         id="path71" />
      <path
         inkscape:connector-curvature="0"
         d="m 388.49,280.1 c -3,1.12 -6.92,2.57 -9.91,3.56 3.91,-11.73 4.15,-12.43 6.24,-23.1 3.19,-1.09 7.44,-2.58 10.58,-3.81 -2.95,12.75 -3.13,13.51 -6.91,23.35"
         style="opacity:0.4;fill:#ffffff"
         id="path73" />
      <path
         inkscape:connector-curvature="0"
         d="m 410.16,230.08 c -3.54,1.95 -8.33,4.46 -12,6.19 -1.94,-20.9 -2,-21.71 -5.67,-38.57 3.51,-1.7 8.17,-4 11.56,-6 4.4,20.07 4.66,21.27 6.1,38.36"
         style="opacity:0.4;fill:#ffffff"
         id="path75" />
      <path
         inkscape:connector-curvature="0"
         d="m 413.33,251.46 c -2.59,3.56 -5.53,7.6 -17.81,13.13 1,-4.44 2.34,-10.38 3.1,-14.87 2.49,-1.21 5.79,-2.87 8.2,-4.24 5,-3.39 7.28,-4.94 10.11,-9.27 -1,4.6 -1.55,11 -3.6,15.25"
         style="opacity:0.4;fill:#ffffff"
         id="path77" />
      <path
         inkscape:connector-curvature="0"
         d="m 379.79,303.91 c -1.23,0.68 -2.86,1.62 -4.13,2.24 l -0.87,0.42 -1.35,0.62 c 6.28,-8 9.75,-12.43 14.66,-22.58 2.26,-1.09 5.25,-2.6 7.43,-3.84 -3.22,5.75 -11.21,19.51 -15.74,23.14"
         style="opacity:0.4;fill:#ffffff"
         id="path79" />
      <path
         inkscape:connector-curvature="0"
         d="m 375,287.08 c -3.57,1 -8.35,2.21 -11.95,3.06 3.5,-11.33 3.71,-12 5.65,-22.41 3.86,-0.94 9,-2.23 12.82,-3.29 -2.84,12.42 -3,13.16 -6.52,22.64"
         style="opacity:0.4;fill:#ffffff"
         id="path81" />
      <path
         inkscape:connector-curvature="0"
         d="m 341.84,323.35 -2.59,0.52 c 5.52,-7.11 6,-7.69 10,-15 l 3.08,-0.61 c -7.14,12 -9.63,14.62 -10.48,15.12"
         style="opacity:0.4;fill:#ffffff"
         id="path83" />
      <path
         inkscape:connector-curvature="0"
         d="m 337.63,324.18 -2.73,0.48 c 5.06,-7 5.47,-7.6 9.16,-14.88 l 3.25,-0.57 c -6.64,12 -8.92,14.51 -9.68,15"
         style="opacity:0.4;fill:#ffffff"
         id="path85" />
      <path
         inkscape:connector-curvature="0"
         d="m 333.2,324.94 -2.85,0.44 c 4.67,-7.09 4.95,-7.52 8.29,-14.74 l 3.4,-0.53 c -4.26,8.34 -4.6,9 -8.84,14.83"
         style="opacity:0.4;fill:#ffffff"
         id="path87" />
      <path
         inkscape:connector-curvature="0"
         d="m 411.56,237.7 c -0.19,1.28 -0.84,3.7 -2,4.64 -1.3,0.75 -1.53,-1.81 -0.86,-4.43 0.67,-2.62 2.05,-4.38 2.68,-3.27 a 5.36,5.36 0 0 1 0.17,3.06"
         style="opacity:0.4;fill:#ffffff"
         id="path89" />
      <path
         inkscape:connector-curvature="0"
         d="m 399.66,271.63 c -1,2.2 -3.34,6.37 -6.14,8 -2.68,1.19 -2.25,-2.18 -1.3,-4.73 2.13,-5.74 7.32,-11.06 8.42,-8.63 0.43,1 0.06,3 -1,5.35"
         style="opacity:0.4;fill:#ffffff"
         id="path91" />
      <path
         inkscape:connector-curvature="0"
         d="m 312.26,336.3 -3,2.56 a 41.55,41.55 0 0 1 -5.2,2.63 l -0.41,0.05 -2.59,0.23 -3.34,0.25 0.72,-0.37 0.49,-0.31 c 2.76,-2.42 2.76,-2.42 4.08,-4.45 l 3,-0.2 4.29,-0.36 2.21,-0.22 -0.2,0.19"
         style="opacity:0.4;fill:#ffffff"
         id="path93" />
      <path
         inkscape:connector-curvature="0"
         d="m 297.23,342.46 c -1.56,0.1 -3.64,0.22 -5.2,0.29 v 0 l 1,-0.28 c 1.8,-0.08 4.19,-0.21 6,-0.33 l -1.73,0.31"
         style="opacity:0.4;fill:#ffffff"
         id="path95" />
      <path
         inkscape:connector-curvature="0"
         d="m 415.6,234 c -0.19,1.29 -0.73,3.73 -1.58,4.7 -0.82,0.69 -0.86,-1.17 -0.75,-2.38 0.28,-3 1.55,-6.31 2.2,-5.61 0.32,0.34 0.37,1.64 0.13,3.29"
         style="opacity:0.4;fill:#ffffff"
         id="path97" />
      <path
         inkscape:connector-curvature="0"
         d="m 418.2,230.14 a 18.81,18.81 0 0 1 -1.14,4.74 c -0.09,0.13 -0.27,0.38 -0.35,-0.14 -0.31,-1.84 1,-8.45 1.56,-8 0.2,0.18 0.18,1.56 -0.07,3.35"
         style="opacity:0.4;fill:#ffffff"
         id="path99" />
      <path
         inkscape:connector-curvature="0"
         d="m 238.86,330.54 c -2.3,-0.56 -5.36,-1.33 -7.64,-2 -7.94,-6.07 -8.42,-6.44 -14.3,-12.86 2.88,0.78 6.72,1.78 9.61,2.46 6.16,7.24 6.53,7.68 12.33,12.36"
         style="fill:#ffffff"
         id="path101" />
      <path
         inkscape:connector-curvature="0"
         d="m 225.25,324 a 90.58,90.58 0 0 1 -11.72,-4.32 c -3,-2.59 -7.05,-6.08 -9.9,-8.87 2.26,1 5.29,2.22 7.6,3.08 1.71,0.55 4,1.32 5.69,1.82 2.44,2.55 5.71,5.93 8.33,8.29"
         style="fill:#ffffff"
         id="path103" />
      <path
         inkscape:connector-curvature="0"
         d="m 202,302 c 2.64,3.68 6.31,8.48 9.24,11.93 -2.3,-0.88 -5.35,-2.08 -7.6,-3.08 -7.84,-8.81 -8.31,-9.34 -13.77,-17.81 l 3.06,1.37 c 1.74,0.67 4,1.6 5.79,2.22 L 202,302"
         style="opacity:0.7;fill:#ffffff"
         id="path105" />
      <path
         inkscape:connector-curvature="0"
         d="m 214.43,305.65 c 1.86,2.94 4.35,6.85 6.4,9.66 -2.82,-0.77 -6.56,-1.82 -9.35,-2.69 -2.26,-2.92 -5.25,-6.84 -7.31,-9.91 -1.36,-2.33 -3.24,-5.38 -4.49,-7.76 3.23,1 7.55,2.24 10.82,3.1 1.17,2.29 2.61,5.4 3.93,7.6"
         style="opacity:0.7;fill:#ffffff"
         id="path107" />
      <path
         inkscape:connector-curvature="0"
         d="m 202.55,291.46 c 0.32,0.94 0.38,2.39 -1.47,1.92 -3.12,-1.11 -5.45,-5.48 -3.85,-6.19 1.4,-0.61 4.48,1.86 5.32,4.27"
         style="fill:#ffffff"
         id="path109" />
      <path
         inkscape:connector-curvature="0"
         d="m 188.63,268.39 c 1.05,3.62 2.42,8.46 3.64,12 L 188.2,279 c -3,-1.26 -7.06,-3 -10,-4.5 -4.72,-13.15 -4.81,-13.4 -7.48,-27.62 a 105.66,105.66 0 0 0 15.07,6.37 c 0.76,4.57 1.71,10.7 2.86,15.19"
         style="fill:#ffffff"
         id="path111" />
      <path
         inkscape:connector-curvature="0"
         d="m 178.71,279.18 -2.93,-1.87 c -5.29,-12.06 -7.47,-17.06 -10.53,-33.78 l 3.21,2.05 c 2.56,13.27 3.62,18.76 10.25,33.6"
         style="fill:#ffffff"
         id="path113" />
      <path
         inkscape:connector-curvature="0"
         d="m 165.64,263.89 -1.59,-3.7 -3.5,-9.58 0.46,1.19 c 1.34,3.64 3.09,8.52 4.63,12.09"
         style="fill:#ffffff"
         id="path115" />
      <path
         inkscape:connector-curvature="0"
         d="m 161,204.68 -1.53,-1.49 -0.05,0.43 c -3,-3.8 -3,-3.8 -3.68,-5.75 l 1.05,-6.93 a 22.52,22.52 0 0 1 -0.59,-3.91 l 0.93,-4.59 v 1.42 c 1.52,-5.7 3.82,-13.23 5.78,-18.79 0.85,3.53 1.24,5.14 5.43,9.17 -3.76,11.51 -5.83,17.85 -7.38,30.44"
         style="opacity:0.7;fill:#ffffff"
         id="path117" />
      <path
         inkscape:connector-curvature="0"
         d="m 155.73,197.87 c -1.09,13.3 -1.18,14.38 -0.72,23.12 a 22.44,22.44 0 0 1 -0.59,-2.89 l -0.26,-8.58 c 0.61,-14.37 0.62,-14.65 1.93,-22.45 l 0.26,-1.46 -0.16,1.42 a 23.36,23.36 0 0 0 0.59,3.91 l -1.05,6.93"
         style="fill:#ffffff"
         id="path119" />
      <polyline
         points="157.95 241.41 157.46 239.32 155.95 231.66 156.12 232.44 157.95 241.41"
         style="fill:#ffffff"
         id="polyline121" />
      <path
         inkscape:connector-curvature="0"
         d="m 155.69,228.38 c 0.09,0.79 0.24,2.16 0.21,2.5 a 0.46,0.46 0 0 1 -0.07,-0.16 c 0,-0.19 -0.12,-0.55 -0.3,-1.78 l -0.58,-4.61 a 14.66,14.66 0 0 1 -0.14,-1.75 c 0.17,0.23 0.7,4.29 0.88,5.8"
         style="fill:#ffffff"
         id="path123" />
      <path
         inkscape:connector-curvature="0"
         d="m 288.93,80 a 22.94,22.94 0 0 1 2.88,0.34 l -4.32,1.54 1.44,-1.88"
         style="fill:#ffffff"
         id="path125" />
      <polyline
         points="256.89 82.15 260.02 81.73 256.89 82.15"
         style="fill:#ffffff"
         id="polyline127" />
      <path
         inkscape:connector-curvature="0"
         d="m 259.92,81.8 0.1,-0.07 0.63,-0.36 c 12.27,-0.76 13.85,-0.85 26.84,0.54 -13.3,-1.07 -14.69,-1.19 -27.57,-0.11"
         style="opacity:0.7;fill:#ffffff"
         id="path129" />
      <path
         inkscape:connector-curvature="0"
         d="M 259.74,93.16 C 259,92.89 258,92.53 257.27,92.23 c -3.88,2.17 -9,5.1 -12.77,7.49 1.05,0.4 2.45,1 3.51,1.31 l -0.88,0.68 c -1.29,-0.46 -3,-1.11 -4.28,-1.64 11.22,-6.85 11.89,-7.26 21.76,-11.56 0.56,0.23 1.31,0.54 1.89,0.74 l -1.15,0.56 0.32,0.11 -5.93,3.24"
         style="opacity:0.7;fill:#ffffff"
         id="path131" />
      <path
         inkscape:connector-curvature="0"
         d="m 230.07,100.41 a 20.73,20.73 0 0 1 -1.87,-2.22 c 13.15,-6.43 13.66,-6.68 26.2,-10.77 a 11.45,11.45 0 0 0 1,1.24 c -13.48,5.22 -14,5.42 -25.38,11.75"
         style="opacity:0.4;fill:#ffffff"
         id="path133" />
      <polyline
         points="255.45 88.66 255.45 88.66 261.63 86.7 255.45 88.66"
         style="fill:#ffffff"
         id="polyline135" />
      <path
         inkscape:connector-curvature="0"
         d="m 212.32,125.46 a 38.73,38.73 0 0 1 -7.48,-4.52 c 14.61,-13.27 21.69,-18.53 40.42,-27.74 a 19.48,19.48 0 0 0 3.82,2.31 c -14.82,9 -21.83,14 -36.76,29.95"
         style="opacity:0.4;fill:#ffffff"
         id="path137" />
      <path
         inkscape:connector-curvature="0"
         d="m 263.38,87.91 c -0.46,-0.28 -1.06,-0.66 -1.49,-1 13.28,-3.45 14.36,-3.73 25.6,-5 v 0 c -12.82,2.34 -13.87,2.53 -24.11,6"
         style="opacity:0.7;fill:#ffffff"
         id="path139" />
      <path
         inkscape:connector-curvature="0"
         d="m 208.08,116.43 a 28.92,28.92 0 0 1 -2.58,-3.07 c 11.1,-8.44 11.76,-9 21.91,-14.75 a 20.45,20.45 0 0 0 1.89,2.25 c -11.64,7.58 -12.34,8 -21.22,15.57"
         style="opacity:0.4;fill:#ffffff"
         id="path141" />
      <path
         inkscape:connector-curvature="0"
         d="m 215.9,105.17 c -0.79,-2.07 -1.14,-3 -0.06,-5.64 12.82,-6.87 13.06,-7 26.41,-11.71 a 3.8,3.8 0 0 0 0,3.56 c -13.83,6 -14.09,6.15 -26.39,13.79"
         style="opacity:0.4;fill:#ffffff"
         id="path143" />
      <path
         inkscape:connector-curvature="0"
         d="m 268.51,87.83 c -0.54,-0.22 -1.25,-0.52 -1.78,-0.77 12.13,-3.67 12.86,-3.89 20.76,-5.15 v 0 a 141.73,141.73 0 0 0 -17.29,5.23 5.34,5.34 0 0 1 -1.69,0.69"
         style="opacity:0.7;fill:#ffffff"
         id="path145" />
      <path
         inkscape:connector-curvature="0"
         d="m 279,84.8 -0.88,-0.27 c -2.71,1 -6.36,2.34 -9,3.52 l -0.4,-0.15 c 11,-4.16 11.64,-4.41 18.79,-6 v 0 l -5.64,1.63 0.26,0.08 -3.13,1.19"
         style="opacity:0.7;fill:#ffffff"
         id="path147" />
      <path
         inkscape:connector-curvature="0"
         d="m 248.52,89.1 c -1,0.32 -3.35,1.06 -3.61,0.81 0.05,-0.62 7.21,-3 7.74,-2.51 -0.06,0.36 -4.09,1.68 -4.13,1.7"
         style="fill:#ffffff"
         id="path149" />
      <path
         inkscape:connector-curvature="0"
         d="m 248.14,87.92 c -1.24,0.37 -3.35,1 -3.49,0.71 0.25,-0.6 6.86,-2.56 7.77,-2.3 v 0.06 a 31,31 0 0 1 -4.28,1.53"
         style="fill:#ffffff"
         id="path151" />
      <path
         inkscape:connector-curvature="0"
         d="m 248.22,86.75 a 11.61,11.61 0 0 1 -3.33,0.65 v 0 c 0.47,-0.62 7,-2.37 7.73,-2.07 -0.1,0.28 -3.11,1.11 -4.4,1.46"
         style="fill:#ffffff"
         id="path153" />
      <path
         inkscape:connector-curvature="0"
         d="m 194.59,115.28 a 29.19,29.19 0 0 1 2.49,-3.36 c 9.9,-8.27 10.49,-8.77 19.72,-14.42 a 22.56,22.56 0 0 0 -1.94,2.63 c -11.22,7.35 -11.89,7.79 -20.27,15.15"
         style="opacity:0.4;fill:#ffffff"
         id="path155" />
      <path
         inkscape:connector-curvature="0"
         d="m 162.94,165.07 c -1.95,5.57 -4.28,13.09 -5.78,18.79 v -1.42 l 0.24,-1.82 c 1.19,-4.48 2.8,-10.46 4.25,-14.86 l 1.22,-3.35 3.26,-7.72 a 21.33,21.33 0 0 0 -0.64,4.5 l -2.51,5.88"
         style="fill:#ffffff"
         id="path157" />
      <path
         inkscape:connector-curvature="0"
         d="m 170.93,168.31 c -3.28,-3.4 -4.78,-4.94 -5.48,-9.12 a 21.9,21.9 0 0 1 0.64,-4.5 c 2.1,-4.1 4.95,-9.54 7.31,-13.49 -0.81,3.31 -1.71,7.07 4.55,12.8 -2.19,4.25 -5.07,9.94 -7,14.31"
         style="fill:#ffffff"
         id="path159" />
      <path
         inkscape:connector-curvature="0"
         d="m 227.9,92.57 a 26.51,26.51 0 0 1 2.1,-2.15 l 4.95,-2 -0.7,0.61 c 12.11,-4 12.35,-4.07 18.9,-5.35 -0.24,0.26 -0.58,0.59 -0.79,0.87 -13.24,3.42 -14,3.63 -24.45,8"
         style="opacity:0.4;fill:#ffffff"
         id="path161" />
      <path
         inkscape:connector-curvature="0"
         d="m 220.25,96.3 a 27,27 0 0 1 2.36,-2.42 l 5.71,-2.74 a 26.37,26.37 0 0 0 -2.15,2.21 l -5.92,3"
         style="opacity:0.4;fill:#ffffff"
         id="path163" />
      <path
         inkscape:connector-curvature="0"
         d="m 174.12,143.32 a 21.05,21.05 0 0 1 0.59,-4.18 c 7.56,-10.59 7.71,-10.79 12.57,-16.09 a 17.94,17.94 0 0 0 -0.53,3.71 c -8.5,10.24 -8.66,10.43 -12.63,16.56"
         style="opacity:0.4;fill:#ffffff"
         id="path165" />
      <path
         inkscape:connector-curvature="0"
         d="m 171.73,143.68 0.4,-0.73 c 3,-4.66 7,-10.77 10.31,-15.21 8.37,-9.91 8.53,-10.1 13.77,-15 a 30.75,30.75 0 0 0 -3,3.89 c -9.29,9.55 -13.13,13.5 -21.45,27.1"
         style="opacity:0.4;fill:#ffffff"
         id="path167" />
      <path
         inkscape:connector-curvature="0"
         d="m 213.37,158.42 c -1.47,2.83 -4.58,3.54 -5.38,1.24 -0.8,-2.3 1.79,-6.41 4.56,-5.85 1.87,0.67 1.6,3.1 0.82,4.61 m 8.16,6.59 c 1.59,-4.26 3.74,-9.93 5.48,-14.13 -2,-0.45 -4.74,-1 -6.76,-1.5 l 3.3,-6.52 -2.24,-0.57 c -1.46,2.81 -3.46,6.52 -4.83,9.37 -2.92,-0.82 -6.81,-1.95 -9.69,-2.87 1.64,-2.76 3.76,-6.47 5.49,-9.17 a 74.52,74.52 0 0 1 -9.45,-3.84 c -7.48,10.72 -8.09,11.59 -12.45,19.47 6,2.7 13.52,6.06 31.15,9.76"
         style="fill:#ffffff"
         id="path169" />
      <polyline
         points="168.03 150.54 169.88 146.97 169.71 147.3 168.03 150.54"
         style="fill:#ffffff"
         id="polyline171" />
      <path
         inkscape:connector-curvature="0"
         d="m 189.49,154.81 c -2,-1.13 -4.66,-2.69 -6.57,-4 7.54,-11.69 8,-12.39 15.45,-21.31 1.64,1.08 3.88,2.45 5.6,3.39 -8.21,11.14 -8.7,11.81 -14.48,21.91"
         style="opacity:0.4;fill:#ffffff"
         id="path173" />
      <path
         inkscape:connector-curvature="0"
         d="m 273.51,77.35 2.84,-0.27 c 1.58,-0.11 3.68,-0.25 5.26,-0.33 a 8.63,8.63 0 0 1 1.89,0.5 c -2.42,0.13 -2.86,0.15 -5,0.36 a 34.49,34.49 0 0 0 -5,-0.26"
         style="fill:#ffffff"
         id="path175" />
      <path
         inkscape:connector-curvature="0"
         d="m 283.39,76.9 c 3,-0.07 3.28,-0.08 5.51,-0.06 l -0.12,0.17 2.59,0.07 -1.24,0.94 -0.71,0.8 c -0.48,0 -1.12,0 -1.61,0 -1.38,0 -1.43,0 -2.18,0 a 11.62,11.62 0 0 0 -2.24,-1.91"
         style="fill:#ffffff"
         id="path177" />
      <path
         inkscape:connector-curvature="0"
         d="m 211.38,182.76 a 170.1,170.1 0 0 1 -19,-5.37 c 1.71,-4.49 4,-10.47 5.93,-14.88 a 172.93,172.93 0 0 0 17.85,5 c -1.48,4.54 -3.43,10.62 -4.75,15.22"
         style="fill:#ffffff"
         id="path179" />
      <path
         inkscape:connector-curvature="0"
         d="m 193.94,215.63 a 139,139 0 0 1 -20.32,-7.41 c 2.2,-12.69 3.3,-19.06 8.37,-33 a 126.47,126.47 0 0 0 18.83,6.86 c -3.41,12.57 -5.11,18.88 -6.88,33.55"
         style="opacity:0.3;fill:#ffffff"
         id="path181" />
      <path
         inkscape:connector-curvature="0"
         d="m 297.37,77 2.71,0.24 2.69,0.28 a 42.3,42.3 0 0 0 -7.37,0.61 l -2.58,-0.25 A 16.23,16.23 0 0 1 297.37,77"
         style="fill:#ffffff"
         id="path183" />
      <path
         inkscape:connector-curvature="0"
         d="m 217.86,96.23 1.67,-1 5.76,-3.23 c -0.95,0.54 -2.24,1.26 -3.17,1.86 l -4.26,2.41"
         style="opacity:0.4;fill:#ffffff"
         id="path185" />
      <path
         inkscape:connector-curvature="0"
         d="m 224.78,92.44 c 1.19,-0.72 2.81,-1.64 4.05,-2.28 l 5.82,-2.68 a 31.52,31.52 0 0 0 -5.41,2.87 l -4.46,2.09"
         style="opacity:0.4;fill:#ffffff"
         id="path187" />
      <path
         inkscape:connector-curvature="0"
         d="M 232,89.17 A 33.3,33.3 0 0 1 238.28,86 l 4.11,-1.51 a 32.27,32.27 0 0 0 -5.08,2.5 l -0.53,0.18 -0.68,0.44 -4.1,1.56"
         style="opacity:0.4;fill:#ffffff"
         id="path189" />
      <path
         inkscape:connector-curvature="0"
         d="m 178.91,178.61 c -0.49,1.18 -1.72,3 -3.2,2.34 -2.35,-1.59 -0.46,-7.25 1.86,-7.7 1.74,-0.33 2.47,2.62 1.34,5.36"
         style="fill:#ffffff"
         id="path191" />
      <path
         inkscape:connector-curvature="0"
         d="m 201.15,108.3 -1.47,1.25 5.62,-4.64 c 0,0 -2.21,1.76 -4.15,3.39"
         style="opacity:0.4;fill:#ffffff"
         id="path193" />
      <path
         inkscape:connector-curvature="0"
         d="m 175.16,191 c -0.39,1.21 -1.45,3.08 -3,2.41 -2.44,-1.64 -1,-7.48 1.2,-7.95 1.7,-0.35 2.67,2.7 1.76,5.54"
         style="fill:#ffffff"
         id="path195" />
      <path
         inkscape:connector-curvature="0"
         d="m 172.48,203.79 c -0.28,1.23 -1.17,3.14 -2.7,2.45 -2.43,-1.61 -1.57,-7.67 0.51,-8.12 1.65,-0.36 2.85,2.77 2.19,5.67"
         style="fill:#ffffff"
         id="path197" />
      <path
         inkscape:connector-curvature="0"
         d="m 255.36,83.29 -2.22,0.42 c -12.74,3 -12.74,3 -18.9,5.35 l 0.7,-0.61 1.16,-0.86 0.68,-0.44 0.53,-0.18 c 11.42,-3.46 12.1,-3.66 19.58,-4.82 l 3.13,-0.42 -0.1,0.07 -0.61,0.42 -0.66,0.54 -3.29,0.53"
         style="fill:#ffffff"
         id="path199" />
      <path
         inkscape:connector-curvature="0"
         d="m 164.5,218.7 c 0,4.89 0.05,11.41 0.35,16.29 a 73.86,73.86 0 0 1 -5.89,-4.84 c -0.58,-12.7 -0.68,-15 0.45,-26.53 l 0.05,-0.43 1.53,1.49 c 1.29,1 3,2.41 4.34,3.34 -0.25,3.2 -0.77,7.47 -0.83,10.68"
         style="fill:#ffffff"
         id="path201" />
      <path
         inkscape:connector-curvature="0"
         d="m 179.86,242.47 c -8.47,-3.56 -8.8,-3.7 -15,-7.48 -0.21,-4.88 -0.44,-11.4 -0.35,-16.29 6.7,4 6.83,4.09 15.05,7.51 0,4.88 0,11.39 0.31,16.26"
         style="opacity:0.3;fill:#ffffff"
         id="path203" />
      <path
         inkscape:connector-curvature="0"
         d="m 284.1,86.24 1,-1.36 -1.22,-0.12 -3.36,3.24 h 0.25 l 1.8,-1.87 1.53,0.13"
         style="fill:#ffffff"
         id="path205" />
      <path
         inkscape:connector-curvature="0"
         d="m 288.12,82.41 h -0.58 l -0.05,-0.52 0.63,0.5"
         style="fill:#ffffff"
         id="path207" />
      <path
         inkscape:connector-curvature="0"
         d="m 291.33,85.32 c -1.08,0.09 -1.24,0.11 -2.23,0.15 l -0.93,-2.17 h -0.55 v -0.25 a 11.94,11.94 0 0 0 1.24,-0.06 l 2.49,2.32"
         style="fill:#ffffff"
         id="path209" />
      <path
         inkscape:connector-curvature="0"
         d="m 284.41,84.05 a 16.24,16.24 0 0 1 -2.3,-0.43 l -0.26,-0.08 5.64,-1.63 v 0 l -3.08,2.14"
         style="fill:#ffffff"
         id="path211" />
      <path
         inkscape:connector-curvature="0"
         d="m 203.15,225.22 a 180.74,180.74 0 0 1 -20.61,-5.94 l 0.4,-4.18 a 178.7,178.7 0 0 0 20.53,5.9 l -0.32,4.21"
         style="opacity:0.3;fill:#ffffff"
         id="path213" />
      <polyline
         points="314.22 91.65 311.49 90.27 314.22 91.65"
         style="fill:#ffffff"
         id="polyline215" />
      <path
         inkscape:connector-curvature="0"
         d="m 334.83,86 c 0.82,0.52 1.91,1.24 2.69,1.83 C 325,84 324.2,83.8 313.15,82.22 c -0.4,-0.3 -0.95,-0.68 -1.38,-0.94 A 102.91,102.91 0 0 1 334.83,86"
         style="fill:#ffffff"
         id="path217" />
      <path
         inkscape:connector-curvature="0"
         d="m 370.28,108.47 a 14.32,14.32 0 0 1 0,3.07 c -11.19,-8.19 -11.86,-8.68 -22.09,-14.26 a 10,10 0 0 0 0,-2.25 c 12.13,6.41 12.86,6.79 22.1,13.44"
         style="opacity:0.3;fill:#ffffff"
         id="path219" />
      <path
         inkscape:connector-curvature="0"
         d="m 326.7,88.59 c 1.59,0.53 3.29,1.25 3.31,1.55 -0.36,0.33 -7.66,-2.08 -7.73,-2.55 0.24,-0.19 2.58,0.38 4.42,1"
         style="fill:#ffffff"
         id="path221" />
      <path
         inkscape:connector-curvature="0"
         d="m 326.12,89.74 c 1.61,0.59 3.19,1.35 3.11,1.65 -0.51,0.31 -7.67,-2.32 -7.59,-2.78 0.33,-0.18 2.64,0.45 4.48,1.13"
         style="fill:#ffffff"
         id="path223" />
      <path
         inkscape:connector-curvature="0"
         d="m 325.11,90.86 c 1.56,0.65 3.05,1.45 2.87,1.74 -0.66,0.3 -7.14,-2.3 -7.38,-3 0.15,-0.28 2.6,0.44 4.51,1.22"
         style="fill:#ffffff"
         id="path225" />
      <path
         inkscape:connector-curvature="0"
         d="m 236.57,114.93 c -2.86,3.37 -6.65,7.88 -9.35,11.38 -2.21,-0.69 -5.15,-1.65 -7.33,-2.43 9,-9.84 9.59,-10.43 17.87,-17.52 1.6,0.57 3.76,1.3 5.39,1.8 -2,2 -4.71,4.64 -6.58,6.77"
         style="opacity:0.4;fill:#ffffff"
         id="path227" />
      <path
         inkscape:connector-curvature="0"
         d="m 231.13,151.68 -4.12,-0.8 c -2,-0.45 -4.74,-1 -6.76,-1.5 l 3.3,-6.52 c 2.61,-4.6 6.19,-10.67 9,-15.13 2.66,0.6 6.21,1.37 8.89,1.89 -5.78,11.21 -6.12,11.88 -10.33,22.06"
         style="opacity:0.4;fill:#ffffff"
         id="path229" />
      <path
         inkscape:connector-curvature="0"
         d="m 375,128.32 c -1.51,1 -3.55,2.25 -5.13,3.12 -9,-10.41 -9.55,-11 -18,-18.67 1.22,-0.7 2.84,-1.65 4,-2.44 10.57,8.92 11.2,9.46 19.08,18"
         style="opacity:0.3;fill:#ffffff"
         id="path231" />
      <path
         inkscape:connector-curvature="0"
         d="m 243.38,162.62 c -3.8,-0.53 -8.87,-1.26 -12.66,-1.87 4.49,-12.56 4.76,-13.31 9.14,-23.08 3.18,0.5 7.43,1.14 10.63,1.57 -3.6,10.74 -4.25,12.67 -7.11,23.38"
         style="fill:#ffffff"
         id="path233" />
      <path
         inkscape:connector-curvature="0"
         d="m 414.9,190.44 a 56.08,56.08 0 0 1 -4.52,4.6 c -3.3,-13.62 -3.5,-14.43 -7.75,-25.39 a 50.49,50.49 0 0 0 4.23,-4.3 c 5.06,13 5.36,13.76 8,25.09"
         style="fill:#ffffff"
         id="path235" />
      <path
         inkscape:connector-curvature="0"
         d="m 420.35,210 -0.33,9.26 -0.5,2.53 c 0.4,-14.28 0.43,-15.14 -1,-26.92 a 23.5,23.5 0 0 0 0.41,-4.73 c 0.63,5.94 1.44,13.88 1.43,19.86"
         style="opacity:0.4;fill:#ffffff"
         id="path237" />
      <path
         inkscape:connector-curvature="0"
         d="m 221.31,142.29 c -1.46,2.81 -3.46,6.52 -4.83,9.37 -2.92,-0.82 -6.81,-1.95 -9.69,-2.87 1.64,-2.76 3.76,-6.47 5.49,-9.17 2.53,-3.7 5.94,-8.63 8.64,-12.21 2.39,0.75 5.58,1.71 8,2.37 -2.34,3.72 -5.51,8.65 -7.61,12.51"
         style="opacity:0.4;fill:#ffffff"
         id="path239" />
      <path
         inkscape:connector-curvature="0"
         d="m 349.94,108.07 c -1.26,0.7 -3,1.6 -4.25,2.22 l -5.12,-4.18 c 1.18,-0.58 2.74,-1.37 3.88,-2 l 5.49,4"
         style="fill:#ffffff"
         id="path241" />
      <path
         inkscape:connector-curvature="0"
         d="m 370.2,146.33 c -2.23,0.77 -5.21,1.78 -7.46,2.47 -6.37,-11.23 -9.28,-16.35 -18.17,-27.49 1.7,-0.54 4,-1.26 5.65,-1.87 8.33,9.62 12.13,14 20,26.89"
         style="opacity:0.3;fill:#ffffff"
         id="path243" />
      <path
         inkscape:connector-curvature="0"
         d="m 375.74,156.43 c -2.38,0.82 -5.55,1.9 -8,2.63 l -3.87,-8 c 2.28,-0.73 5.32,-1.7 7.57,-2.5 l 4.26,7.9"
         style="opacity:0.3;fill:#ffffff"
         id="path245" />
      <path
         inkscape:connector-curvature="0"
         d="m 398.42,149.05 a 51.14,51.14 0 0 1 -3.93,4 c -7.15,-11.52 -7.28,-11.74 -11.89,-17.64 a 40.43,40.43 0 0 0 3.49,-3.56"
         style="opacity:0.3;fill:#ffffff"
         id="path247" />
      <path
         inkscape:connector-curvature="0"
         d="M 396.47,160 A 65.1,65.1 0 0 1 382,167.45 c -5.8,-12.65 -8.19,-17.89 -17.46,-31.5 4.78,-2 7.67,-3.2 11.77,-6.06 8.73,10.86 12.34,15.35 20.14,30.12"
         style="opacity:0.3;fill:#ffffff"
         id="path249" />
      <path
         inkscape:connector-curvature="0"
         d="m 269.88,91.05 c -2,-0.48 -2.46,-0.58 -4.21,-1.13 l -0.32,-0.11 1.15,-0.56 2.6,-1.2 c 2.7,-1.07 6.27,-2.59 9,-3.52 l 0.88,0.27 1,0.25 c -3.09,1.72 -7.2,4.06 -10.16,6"
         style="opacity:0.7;fill:#ffffff"
         id="path251" />
      <path
         inkscape:connector-curvature="0"
         d="m 404.29,146.29 3.13,6.15 0.12,0.26 c -2.14,-4 -5.05,-9.44 -7.44,-13.35 l -0.92,-1.67 5.11,8.61"
         style="opacity:0.3;fill:#ffffff"
         id="path253" />
      <path
         inkscape:connector-curvature="0"
         d="m 406.48,185.79 c -5.61,3.66 -5.72,3.73 -13.17,7.08 a 139.08,139.08 0 0 1 -15,5.09 l -0.79,-3.58 c -1.48,-5.77 -3.63,-13.43 -5.41,-19.12 7.92,-2.41 17.78,-5.41 26.23,-11.34 5.28,12.44 5.59,13.19 8.12,21.87"
         style="fill:#ffffff"
         id="path255" />
      <path
         inkscape:connector-curvature="0"
         d="m 293.63,99.55 c -3.83,0.12 -4.75,0.14 -9.14,0.09 0.34,-2.51 0.78,-5.84 1.16,-8.34 2.41,0 2.84,0 5.06,0 0.59,2.37 1.37,5.52 1.9,7.9 h 0.92 l 0.1,0.41"
         style="fill:#ffffff"
         id="path257" />
      <path
         inkscape:connector-curvature="0"
         d="m 284.72,93.49 c -2.86,-0.11 -3.22,-0.13 -5.36,-0.29 l 0.69,-1.22 c -0.74,-0.07 -1.72,-0.15 -2.46,-0.23 l 3.18,-3.75 1.8,-1.87 1.53,0.13 c 1.36,0.09 1.39,0.09 2.13,0.11 -0.48,2.14 -1.1,5 -1.51,7.14"
         style="fill:#ffffff"
         id="path259" />
      <path
         inkscape:connector-curvature="0"
         d="m 256.26,115.36 c -2.26,-0.37 -5.27,-0.88 -7.52,-1.3 9.35,-11.78 14.39,-17.42 26.75,-26 0.7,0.13 1.63,0.3 2.33,0.41 -7.77,7.19 -12.26,11.65 -21.56,26.87"
         style="fill:#ffffff"
         id="path261" />
      <path
         inkscape:connector-curvature="0"
         d="m 281.6,101.9 c -1.43,-0.07 -3.34,-0.17 -4.77,-0.26 l -0.94,2.54 -1.72,-0.13 c 1.22,-2.72 2.86,-6.33 4.19,-9 1.42,0.1 3.32,0.22 4.74,0.28 -0.46,2 -1.08,4.59 -1.5,6.57"
         style="fill:#ffffff"
         id="path263" />
      <path
         inkscape:connector-curvature="0"
         d="m 289.1,85.47 0.37,0.94 h -0.22 l 1,3.08 c -2.06,0 -2.43,0 -4.42,0 0.28,-1.37 0.62,-3.2 0.93,-4.56 l 0.4,-1.65 h 1.05 l 0.93,2.17"
         style="fill:#ffffff"
         id="path265" />
      <path
         inkscape:connector-curvature="0"
         d="m 213.37,158.42 c -0.59,1.13 -2.1,2.93 -4.07,2.53 -2.74,-1 -1.23,-5.69 1.54,-6.94 2.27,-1 3.81,1 2.85,3.68 a 6.73,6.73 0 0 1 -0.32,0.73"
         style="fill:#ffffff"
         id="path267" />
      <path
         inkscape:connector-curvature="0"
         d="m 365.55,128.52 c 0.71,0.91 1.75,2.81 0.66,3.45 -2.23,0.72 -6,-4.15 -5.3,-5.7 0.54,-1.1 3,0.07 4.64,2.25"
         style="opacity:0.3;fill:#ffffff"
         id="path269" />
      <path
         inkscape:connector-curvature="0"
         d="m 326.49,120.66 c -6.13,1 -7.77,1.22 -15.47,2 -1.28,-3.42 -3,-8 -4.41,-11.37 5.52,-0.58 6.52,-0.68 11.13,-1.39 l 1.45,2.13 1.52,-0.25 c 1.75,2.65 4.12,6.16 5.78,8.87"
         style="fill:#ffffff"
         id="path271" />
      <path
         inkscape:connector-curvature="0"
         d="m 309.77,122.78 c -6.76,0.51 -8.36,0.63 -16.26,0.87 -0.32,-3.46 -0.76,-8.09 -1.12,-11.55 5.46,-0.18 6.93,-0.22 13.21,-0.7 1.29,3.4 3,7.94 4.17,11.38"
         style="opacity:0.3;fill:#ffffff"
         id="path273" />
      <path
         inkscape:connector-curvature="0"
         d="m 328.16,136.88 c -7.92,1 -9.8,1.25 -19.25,2 -0.86,-3.88 -2,-9 -3,-12.9 6.92,-0.55 8.78,-0.7 16.56,-1.7 1.75,3.76 4.05,8.8 5.66,12.62"
         style="opacity:0.4;fill:#ffffff"
         id="path275" />
      <path
         inkscape:connector-curvature="0"
         d="m 258.18,138.13 c -7.45,-0.82 -9.45,-1 -17.6,-2.35 1.92,-3.77 4.49,-8.78 6.55,-12.48 6,1 7.62,1.21 15.15,2 -1.27,3.83 -2.94,8.94 -4.1,12.8"
         style="fill:#ffffff"
         id="path277" />
      <path
         inkscape:connector-curvature="0"
         d="m 265.24,167.93 c -4.21,-0.3 -9.82,-0.72 -14,-1.1 1.89,-9 3.68,-17.43 7,-28.7 1.19,-3.85 2.8,-9 4.1,-12.8 2.92,0.25 6.82,0.56 9.75,0.76 -3,14.81 -4.45,23.36 -6.79,41.84"
         style="opacity:0.3;fill:#ffffff"
         id="path279" />
      <path
         inkscape:connector-curvature="0"
         d="m 307.39,139 c -8.25,0.42 -10.21,0.52 -19.73,0.6 0,-3.9 0,-9.1 0,-13 7,-0.07 8.86,-0.09 17,-0.52 0.86,3.87 2,9 2.77,12.92"
         style="opacity:0.3;fill:#ffffff"
         id="path281" />
      <path
         inkscape:connector-curvature="0"
         d="m 274.8,155.55 -5.77,-0.26 c 0.58,-4.22 1.36,-9.84 2,-14 l 5.15,0.23 c -0.42,4.22 -1,9.85 -1.37,14.08"
         style="opacity:0.3;fill:#ffffff"
         id="path283" />
      <path
         inkscape:connector-curvature="0"
         d="m 301,188.41 c -15.51,0.29 -20,0.28 -36.41,-0.46 0.78,-8.57 1.67,-18.29 3.22,-30.23 13.87,0.62 17.68,0.67 31.34,0.4 0.58,8.2 1.24,17.5 1.85,30.29"
         style="opacity:0.3;fill:#ffffff"
         id="path285" />
      <path
         inkscape:connector-curvature="0"
         d="m 292.24,123.54 c -9.46,0 -12.18,0 -22.1,-0.57 2.51,-9.06 3,-10.94 5.75,-18.79 l 0.94,-2.54 c 1.43,0.08 3.34,0.2 4.77,0.26 4.23,0.11 5,0.13 8.82,0.09 0.53,5.46 1.13,11.64 1.82,21.55"
         style="opacity:0.3;fill:#ffffff"
         id="path287" />
      <path
         inkscape:connector-curvature="0"
         d="m 369.36,219.65 c -4.49,0.9 -10.48,2 -15,2.84 C 353.17,209.7 353,207.4 351,195.62 c 4.28,-0.76 10,-1.81 14.24,-2.69 2.71,14 2.87,14.86 4.12,26.72"
         style="opacity:0.4;fill:#ffffff"
         id="path289" />
      <path
         inkscape:connector-curvature="0"
         d="m 350.79,264.18 -1,0.15 c -12.09,1.63 -13.65,1.84 -23.6,2.74 l 0.18,-3.39 A 429,429 0 0 0 326,217 c 12.06,-1.18 14.24,-1.39 24.43,-2.86 1.73,20.77 1.81,31.53 0.39,50"
         style="opacity:0.4;fill:#ffffff"
         id="path291" />
      <path
         inkscape:connector-curvature="0"
         d="m 354.76,192.46 c -7.64,0.89 -17.84,2 -25.51,2.72 -2.21,-19.59 -2.61,-23.12 -5.35,-40.83 7,-0.68 16.21,-1.64 23.14,-2.47 4.12,19 4.87,22.38 7.72,40.58"
         style="opacity:0.7;fill:#ffffff"
         id="path293" />
      <path
         inkscape:connector-curvature="0"
         d="m 310.61,268.55 c -17.2,0.34 -27.58,0.55 -49.51,-0.29 l -3.22,-0.15 c 0,-5.86 0.05,-13.68 0.12,-19.55 0.15,-7.12 0.37,-16.63 0.6,-23.75 20.41,0.75 28.63,1 51.63,0.43 0.31,17.66 0.4,22.41 0.38,43.31"
         style="opacity:0.7;fill:#ffffff"
         id="path295" />
      <path
         inkscape:connector-curvature="0"
         d="m 316.65,166.76 c -4.38,0.28 -10.22,0.62 -14.61,0.81 -0.68,-8.14 -1.45,-17.36 -2.7,-28.22 3.56,-0.16 8.31,-0.41 11.87,-0.65 1.65,7.51 3.53,16 5.44,28.06"
         style="fill:#ffffff"
         id="path297" />
      <path
         inkscape:connector-curvature="0"
         d="m 348.5,142.69 -2.65,0.58 c -6,-11.55 -6.36,-12.24 -12,-21 l 2.11,-0.46 c 7,10.51 7.39,11.14 12.55,20.85"
         style="fill:#ffffff"
         id="path299" />
      <path
         inkscape:connector-curvature="0"
         d="m 352.61,141.72 -2.53,0.61 c -6.43,-11.45 -6.82,-12.14 -12.88,-20.78 l 2,-0.49 c 7.44,10.41 7.88,11 13.4,20.66"
         style="opacity:0.3;fill:#ffffff"
         id="path301" />
      <path
         inkscape:connector-curvature="0"
         d="m 356.48,140.69 -2.38,0.65 c -6.85,-11.35 -7.26,-12 -13.71,-20.58 l 1.89,-0.51 c 7.88,10.28 8.35,10.89 14.2,20.44"
         style="opacity:0.3;fill:#ffffff"
         id="path303" />
      <path
         inkscape:connector-curvature="0"
         d="m 302.41,212.77 a 4.21,4.21 0 0 1 -4.22,3.79 c -4.18,-0.12 -5.59,-4.52 -3.15,-6.93 2.66,-2.62 7.28,-0.91 7.38,2.73 a 2.81,2.81 0 0 1 0,0.41"
         style="opacity:0.7;fill:#ffffff"
         id="path305" />
      <path
         inkscape:connector-curvature="0"
         d="m 318.37,178.83 a 7.38,7.38 0 0 1 -7,7.54 c -8,0 -10.95,-9 -6.14,-13.56 4.81,-4.56 13,-0.72 13.18,6"
         style="fill:#ffffff"
         id="path307" />
      <path
         inkscape:connector-curvature="0"
         d="m 316.65,90.62 2,0.92 c 11.55,5.94 11.55,5.94 17.13,9.66 l -1.16,0.54 -1.85,0.78 -1,0.38 -0.46,-0.35 c -9.95,-7 -10.55,-7.41 -17.08,-10.9 l -2.73,-1.38 0.15,-0.06 0.95,-0.37 1.08,-0.5 3,1.28"
         style="fill:#ffffff"
         id="path309" />
      <polyline
         points="309.8 94.51 309.08 93.95 306.14 91.77 309.8 94.51"
         style="fill:#ffffff"
         id="polyline311" />
      <path
         inkscape:connector-curvature="0"
         d="m 306.14,91.77 4,3 c -1.25,0.25 -2.91,0.57 -4.17,0.78 -2.86,0.42 -4.93,0.72 -9,1 -1.21,-2.33 -2.83,-5.43 -4.17,-7.69 a 56.43,56.43 0 0 0 7.35,-1 l 6,3.91"
         style="fill:#ffffff"
         id="path313" />
      <path
         inkscape:connector-curvature="0"
         d="m 301.62,106.8 c 0.24,0.76 0.34,2.25 -1,2.44 -2.39,0 -3.43,-3.83 -2.28,-4.84 1,-0.84 2.75,0.69 3.28,2.4"
         style="opacity:0.3;fill:#ffffff"
         id="path315" />
      <path
         inkscape:connector-curvature="0"
         d="m 295.92,107.14 c 0.13,0.82 0,2.26 -1.36,2.4 -2.23,-0.08 -2.8,-3.68 -1.65,-4.79 1.15,-1.11 2.72,0.57 3,2.39"
         style="opacity:0.3;fill:#ffffff"
         id="path317" />
      <path
         inkscape:connector-curvature="0"
         d="m 288.57,213 a 4.2,4.2 0 0 1 -4.3,3.66 c -4.17,-0.24 -5.46,-4.68 -2.95,-7 2.72,-2.53 7.27,-0.68 7.27,3 a 2.82,2.82 0 0 1 0,0.41"
         style="opacity:0.7;fill:#ffffff"
         id="path319" />
      <path
         inkscape:connector-curvature="0"
         d="m 274.81,212.8 a 4.13,4.13 0 0 1 -4.33,3.52 4.09,4.09 0 0 1 -2.72,-7.1 4.24,4.24 0 0 1 7.08,3.16 c 0,0.13 0,0.3 0,0.42"
         style="opacity:0.7;fill:#ffffff"
         id="path321" />
    </g>
    <path
       inkscape:connector-curvature="0"
       d="m 254.07,202.15 c -1.22,6.52 -7.57,18.55 -22.86,17.37 -21.06,-4 -22.38,-29.91 -6.56,-39.88 15,-9.43 32.85,4.24 29.42,22.51"
       style="opacity:0.8;fill:#ffffff"
       id="path325" />
    <path
       inkscape:connector-curvature="0"
       d="m 230.57,217.7 c -0.68,0 -1.38,0 -2.11,-0.08 -9.26,-1.75 -15.74,-8 -17.39,-16.69 a 23.65,23.65 0 0 1 10.57,-24.23 19,19 0 0 1 21.33,0.22 c 7.25,4.93 10.68,13.69 9,22.87 v 0 c -1.24,6.39 -7.23,17.91 -21.4,17.91 z m 1.65,-43 a 18.58,18.58 0 0 0 -10,3 22.49,22.49 0 0 0 -10.07,23.06 c 1.56,8.22 7.7,14.12 16.43,15.78 14.82,1.13 21,-10.57 22.2,-16.92 v 0 c 1.64,-8.73 -1.61,-17.06 -8.48,-21.72 a 17.83,17.83 0 0 0 -10.08,-3.23 z"
       style="fill:#ffffff"
       id="path327" />
    <path
       inkscape:connector-curvature="0"
       d="m 235,168.49 a 0.52,0.52 0 0 1 -0.17,0 0.56,0.56 0 0 1 -0.36,-0.71 c 14,-43.55 38.13,-77.8 64.58,-91.62 a 0.57,0.57 0 0 1 0.77,0.24 0.58,0.58 0 0 1 -0.24,0.76 c -26.2,13.69 -50.14,47.69 -64,91 a 0.56,0.56 0 0 1 -0.58,0.33 z"
       style="fill:#ffffff"
       id="path329" />
    <path
       inkscape:connector-curvature="0"
       d="m 226.18,284.78 a 0.56,0.56 0 0 1 -0.55,-0.45 c -3.6,-18.16 -4.51,-38.06 -2.7,-59.16 a 0.56222771,0.56222771 0 1 1 1.12,0.1 c -1.79,21 -0.89,40.79 2.69,58.84 a 0.57,0.57 0 0 1 -0.45,0.66 z"
       style="fill:#ffffff"
       id="path331" />
    <path
       inkscape:connector-curvature="0"
       d="m 252,339.12 a 0.54,0.54 0 0 1 -0.39,-0.16 c -10.09,-9.91 -18.11,-24.8 -23.2,-43 a 0.57,0.57 0 0 1 0.4,-0.69 0.55,0.55 0 0 1 0.69,0.39 c 5,18.06 12.95,32.77 22.9,42.54 a 0.57,0.57 0 0 1 0,0.8 0.58,0.58 0 0 1 -0.4,0.12 z"
       style="fill:#ffffff"
       id="path333" />
    <path
       inkscape:connector-curvature="0"
       d="m 381.87,249.75 -10,-7.07 a 2.72,2.72 0 0 0 -2.33,-0.39 l -21.16,6.22 a 2.71,2.71 0 0 0 -1.84,3.37 l 10.93,37.2 a 2.72,2.72 0 0 0 3.37,1.84 l 49.75,-14.62 a 2.71,2.71 0 0 0 1.83,-3.37 l -7.64,-26 a 2.71,2.71 0 0 0 -3.37,-1.84 l -17.24,5.07 a 2.72,2.72 0 0 1 -2.3,-0.41 z"
       style="fill:#263238"
       id="path335" />
    <rect
       x="359.89001"
       y="222.94"
       width="44.139999"
       height="46.279999"
       transform="rotate(-5.89,381.91008,246.01896)"
       style="fill:#ffffff"
       id="rect337" />
    <path
       inkscape:connector-curvature="0"
       d="m 355.6,256.61 5.07,31.54 a 2.33,2.33 0 0 0 3,1.93 l 49.75,-14.62 a 3.17,3.17 0 0 0 2.17,-3.46 l -5.07,-31.54 a 2.33,2.33 0 0 0 -3,-1.93 l -49.75,14.62 a 3.17,3.17 0 0 0 -2.17,3.46 z"
       style="fill:#407bff"
       id="path339" />
    <g
       style="opacity:0.3"
       id="g343">
      <path
         inkscape:connector-curvature="0"
         d="m 355.6,256.61 5.07,31.54 a 2.33,2.33 0 0 0 3,1.93 l 49.75,-14.62 a 3.17,3.17 0 0 0 2.17,-3.46 l -5.07,-31.54 a 2.33,2.33 0 0 0 -3,-1.93 l -49.75,14.62 a 3.17,3.17 0 0 0 -2.17,3.46 z"
         style="fill:#ffffff"
         id="path341" />
    </g>
    <rect
       x="233.67"
       y="247.8"
       width="33.529999"
       height="31.950001"
       transform="rotate(32.21,250.41979,263.7413)"
       style="fill:#ffffff"
       id="rect345" />
    <path
       inkscape:connector-curvature="0"
       d="m 237.32,96.44 -7.7,-6.8 a 2.25,2.25 0 0 0 -1.91,-0.53 l -18.23,3.3 a 2.27,2.27 0 0 0 -1.84,2.64 l 5.8,32.06 a 2.26,2.26 0 0 0 2.64,1.83 L 259,121.19 a 2.28,2.28 0 0 0 1.84,-2.65 l -4.06,-22.42 a 2.28,2.28 0 0 0 -2.64,-1.84 L 239.23,97 a 2.25,2.25 0 0 1 -1.91,-0.56 z"
       style="fill:#407bff"
       id="path347" />
    <path
       inkscape:connector-curvature="0"
       d="m 237.32,96.44 -7.7,-6.8 a 2.25,2.25 0 0 0 -1.91,-0.53 l -18.23,3.3 a 2.27,2.27 0 0 0 -1.84,2.64 l 5.8,32.06 a 2.26,2.26 0 0 0 2.64,1.83 L 259,121.19 a 2.28,2.28 0 0 0 1.84,-2.65 l -4.06,-22.42 a 2.28,2.28 0 0 0 -2.64,-1.84 L 239.23,97 a 2.25,2.25 0 0 1 -1.91,-0.56 z"
       style="opacity:0.3;fill:#ffffff"
       id="path349" />
    <path
       inkscape:connector-curvature="0"
       d="m 236.33,98.21 -7.7,-6.79 a 2.26,2.26 0 0 0 -1.91,-0.54 l -18.23,3.3 a 2.28,2.28 0 0 0 -1.84,2.64 l 5.8,32.06 a 2.28,2.28 0 0 0 2.64,1.84 L 258,123 a 2.27,2.27 0 0 0 1.84,-2.64 l -4.06,-22.43 a 2.28,2.28 0 0 0 -2.64,-1.83 l -14.86,2.69 a 2.29,2.29 0 0 1 -1.95,-0.58 z"
       style="fill:#407bff"
       id="path351" />
    <path
       inkscape:connector-curvature="0"
       d="m 236.33,98.21 -7.7,-6.79 a 2.26,2.26 0 0 0 -1.91,-0.54 l -18.23,3.3 a 2.28,2.28 0 0 0 -1.84,2.64 l 5.8,32.06 a 2.28,2.28 0 0 0 2.64,1.84 L 258,123 a 2.27,2.27 0 0 0 1.84,-2.64 l -4.06,-22.43 a 2.28,2.28 0 0 0 -2.64,-1.83 l -14.86,2.69 a 2.29,2.29 0 0 1 -1.95,-0.58 z"
       style="opacity:0.6;fill:#ffffff"
       id="path353" />
    <path
       inkscape:connector-curvature="0"
       d="m 254.47,262.8 -2.63,-8.5 a 2,2 0 0 0 -1.17,-1.26 l -15,-5.78 a 2,2 0 0 0 -2.55,1.14 L 223,274.74 a 2,2 0 0 0 1.13,2.55 l 35.23,13.59 a 2,2 0 0 0 2.55,-1.13 L 269,271.32 a 2,2 0 0 0 -1.13,-2.55 l -12.21,-4.71 a 2,2 0 0 1 -1.19,-1.26 z"
       style="fill:#407bff"
       id="path355" />
    <path
       inkscape:connector-curvature="0"
       d="m 254.47,262.8 -2.63,-8.5 a 2,2 0 0 0 -1.17,-1.26 l -15,-5.78 a 2,2 0 0 0 -2.55,1.14 L 223,274.74 a 2,2 0 0 0 1.13,2.55 l 35.23,13.59 a 2,2 0 0 0 2.55,-1.13 L 269,271.32 a 2,2 0 0 0 -1.13,-2.55 l -12.21,-4.71 a 2,2 0 0 1 -1.19,-1.26 z"
       style="opacity:0.6"
       id="path357" />
    <rect
       x="233.67"
       y="247.8"
       width="33.529999"
       height="31.950001"
       transform="rotate(32.21,250.41979,263.7413)"
       style="fill:#ffffff"
       id="rect359" />
    <rect
       x="241.24001"
       y="249.99001"
       width="25.32"
       height="31.950001"
       transform="rotate(32.21,253.88469,265.93023)"
       style="opacity:0.3;fill:#407bff"
       id="rect361" />
    <rect
       x="247.35001"
       y="242.25"
       width="33.529999"
       height="38.950001"
       transform="rotate(41.09,264.11369,261.71877)"
       style="fill:#ffffff"
       id="rect363" />
    <path
       inkscape:connector-curvature="0"
       d="m 252.94,263.67 -2.63,-8.5 a 2,2 0 0 0 -1.18,-1.26 l -15,-5.78 a 2,2 0 0 0 -2.55,1.13 l -10.17,26.35 a 2,2 0 0 0 1.14,2.55 l 35.23,13.59 a 2,2 0 0 0 2.55,-1.13 l 7.11,-18.43 a 2,2 0 0 0 -1.13,-2.55 l -12.22,-4.71 a 2,2 0 0 1 -1.15,-1.26 z"
       style="fill:#407bff"
       id="path365" />
    <path
       inkscape:connector-curvature="0"
       d="m 252.94,263.67 -2.63,-8.5 a 2,2 0 0 0 -1.18,-1.26 l -15,-5.78 a 2,2 0 0 0 -2.55,1.13 l -10.17,26.35 a 2,2 0 0 0 1.14,2.55 l 35.23,13.59 a 2,2 0 0 0 2.55,-1.13 l 7.11,-18.43 a 2,2 0 0 0 -1.13,-2.55 l -12.22,-4.71 a 2,2 0 0 1 -1.15,-1.26 z"
       style="opacity:0.4"
       id="path367" />
    <path
       inkscape:connector-curvature="0"
       d="m 376.55,137.43 a 29.08,29.08 0 0 0 -52.78,-0.54 13.64,13.64 0 0 0 -1.44,-0.06 20.79,20.79 0 0 0 -19.79,27.17 h 88.83 a 20.79,20.79 0 0 0 -14.82,-26.56 z"
       style="fill:#ffffff"
       id="path369" />
    <path
       inkscape:connector-curvature="0"
       d="m 317.72,282.36 a 29.26,29.26 0 0 1 53.11,-0.55 c 0.47,0 1,-0.06 1.45,-0.06 a 20.95,20.95 0 0 1 19.92,27.34 h -89.4 a 20.95,20.95 0 0 1 14.92,-26.73 z"
       style="fill:#ffffff"
       id="path371" />
    <path
       inkscape:connector-curvature="0"
       d="m 226.9,125.24 a 6.46,6.46 0 0 0 -1.25,0.12 11.47,11.47 0 0 0 -21.5,-1.1 7.3,7.3 0 0 0 -1.14,-0.09 7.61,7.61 0 0 0 -7.61,7.61 7.48,7.48 0 0 0 0.37,2.33 h 37.64 a 6.92,6.92 0 0 0 0.31,-2.05 6.82,6.82 0 0 0 -6.82,-6.82 z"
       style="fill:#ffffff"
       id="path373" />
    <path
       inkscape:connector-curvature="0"
       d="m 219,304.53 a 8,8 0 0 0 -1.62,0.16 14.85,14.85 0 0 0 -27.84,-1.43 9.13,9.13 0 0 0 -1.48,-0.11 9.85,9.85 0 0 0 -9.4,12.85 h 48.75 A 8.85,8.85 0 0 0 219,304.53 Z"
       style="fill:#ffffff"
       id="path375" />
  </g>
  <g
     transform="translate(-2.1186461,0.28367542)"
     id="freepik--Character--inject-15">
    <path
       inkscape:connector-curvature="0"
       d="m 123.35,177.55 c -1.59,2.87 -3.3,6 -4.9,9 -1.6,3 -3.19,6.06 -4.69,9.07 -1.5,3.01 -2.88,6 -4,9 -0.59,1.46 -1.07,2.91 -1.47,4.22 a 19.21,19.21 0 0 0 -0.69,3.1 l -0.13,-1.13 a 22.9,22.9 0 0 0 1.39,5.61 51.19,51.19 0 0 0 2.85,6.18 c 1.1,2.1 2.36,4.18 3.68,6.27 0.66,1 1.33,2.09 2,3.12 l 2.06,3 0.19,0.28 a 4.38,4.38 0 0 1 -6,6.09 c -1.28,-0.85 -2.36,-1.63 -3.48,-2.5 -1.12,-0.87 -2.18,-1.76 -3.23,-2.69 a 64.87,64.87 0 0 1 -6,-6.08 49.78,49.78 0 0 1 -5.2,-7.25 33.64,33.64 0 0 1 -3.76,-9.15 3.78,3.78 0 0 1 -0.11,-0.74 v -0.39 a 30.21,30.21 0 0 1 0.6,-7.46 53.45,53.45 0 0 1 1.57,-6 104.15,104.15 0 0 1 4.08,-10.75 c 1.49,-3.45 3.12,-6.76 4.81,-10 1.69,-3.24 3.46,-6.42 5.48,-9.68 a 8.74,8.74 0 0 1 15.08,8.81 z"
       style="fill:#263238"
       id="path378" />
    <path
       inkscape:connector-curvature="0"
       d="m 120.75,235.93 4.5,4.72 -10.37,5.35 a 20.06,20.06 0 0 1 -2.62,-5 5.08,5.08 0 0 1 3.24,-6.37 v 0 a 5.06,5.06 0 0 1 5.25,1.3 z"
       style="fill:#ffb573"
       id="path380" />
    <path
       inkscape:connector-curvature="0"
       d="m 125.08,250.76 -3.94,1.24 a 3.37,3.37 0 0 1 -4,-1.67 l -2.26,-4.33 10.37,-5.36 2,5.8 a 3.37,3.37 0 0 1 -2.17,4.32 z"
       style="fill:#ffb573"
       id="path382" />
    <path
       inkscape:connector-curvature="0"
       d="m 213.28,197.19 8,-5.5 3.72,11.08 c 0,0 -7.87,4.11 -10.72,0.28 z"
       style="fill:#ffb573"
       id="path384" />
    <path
       inkscape:connector-curvature="0"
       d="m 231.26,193.45 0.62,4.1 a 3.38,3.38 0 0 1 -2.3,3.72 l -4.63,1.5 -3.64,-11.08 6,-1.05 a 3.37,3.37 0 0 1 3.95,2.81 z"
       style="fill:#ffb573"
       id="path386" />
    <path
       inkscape:connector-curvature="0"
       d="m 112.52,417.14 h 7.17 l 0.88,-0.82 1.32,0.82 c 4.38,0 10.29,-0.16 13.1,-1.12 a 1.83,1.83 0 0 0 -0.57,-1.83 c 0,0 -11.59,-3.59 -12.64,-6 H 113"
       style="fill:#263238"
       id="path388" />
    <path
       inkscape:connector-curvature="0"
       d="m 116.25,315.72 c -0.28,-37.11 -0.91,-66.4 2.61,-80.63 l 32.8,-5.3 c 0,0 -6,62.82 -13.31,88.81 -7.31,25.99 -15.16,90.17 -15.16,90.17 H 112 c 0,0 -4,-62.2 4.25,-93.05 z"
       style="fill:#407bff"
       id="path390" />
    <path
       inkscape:connector-curvature="0"
       d="m 140,260.9 6.1,15.81 c -1.94,13.86 -4.27,28 -6.78,38.22 -2.67,-18.5 -0.74,-48.82 0.68,-54.03 z"
       style="opacity:0.2"
       id="path392" />
    <path
       inkscape:connector-curvature="0"
       d="m 200.29,406.5 c 0,0 -16.5,1.26 -18.31,-0.73 l -8.66,2.66 2.43,8.71 5.33,-1.63 0.6,-1.06 1.57,0.39 c 4.32,-1.32 15.75,-5 18.21,-6.76 a 1.89,1.89 0 0 0 -1.17,-1.58 z"
       style="fill:#263238"
       id="path394" />
    <path
       inkscape:connector-curvature="0"
       d="m 151,318 a 322.67,322.67 0 0 1 -21.73,-84.53 l 35.83,-5.87 c 0,0 5.31,64.79 7.62,91.42 2.42,27.69 11.72,86.65 11.72,86.65 l -11.54,3.54 c 0,0 -20.74,-56.81 -21.9,-91.21 z"
       style="fill:#407bff"
       id="path396" />
    <path
       inkscape:connector-curvature="0"
       d="m 124.42,137.4 c 1.61,7 2.24,16.82 -0.24,22.21 3.76,3 9.76,6.66 17.35,6 7.59,-0.66 5.82,-5.71 3.59,-8.2 -5.65,-2.35 -6.06,-5.11 -4.91,-7.65 z"
       style="fill:#ffb573"
       id="path398" />
    <path
       inkscape:connector-curvature="0"
       d="m 117.22,161.84 c 0,0 4.32,-4.4 6.16,-5.5 1.84,-1.1 16.59,-1.85 20.06,-1.47 3.47,0.38 8,5.18 8,5.18 z"
       style="fill:#407bff"
       id="path400" />
    <path
       inkscape:connector-curvature="0"
       d="m 146,132.39 c 0.1,0.7 0.56,1.21 1,1.14 0.44,-0.07 0.75,-0.7 0.64,-1.4 -0.11,-0.7 -0.56,-1.2 -1,-1.13 -0.44,0.07 -0.74,0.7 -0.64,1.39 z"
       style="fill:#263238"
       id="path402" />
    <path
       inkscape:connector-curvature="0"
       d="m 146.1,133.38 a 25.05,25.05 0 0 0 4.23,5.44 4.12,4.12 0 0 1 -3.24,1.15 z"
       style="fill:#ed893e"
       id="path404" />
    <path
       inkscape:connector-curvature="0"
       d="m 146.8,127.84 a 0.43,0.43 0 0 1 -0.36,0.17 3.23,3.23 0 0 0 -2.74,1.17 0.42,0.42 0 0 1 -0.67,-0.49 4.1,4.1 0 0 1 3.45,-1.51 0.41,0.41 0 0 1 0.39,0.43 0.48,0.48 0 0 1 -0.07,0.23 z"
       style="fill:#263238"
       id="path406" />
    <path
       inkscape:connector-curvature="0"
       d="m 122.16,134.09 c 1.8,8.49 2.42,13.55 7.41,17.27 7.49,5.59 17.49,0 18.26,-8.89 0.69,-8 -2.37,-20.53 -11.27,-22.61 a 12,12 0 0 0 -14.4,14.23 z"
       style="fill:#ffb573"
       id="path408" />
    <path
       inkscape:connector-curvature="0"
       d="m 140.37,137.4 c 5.15,-4.13 2.51,-10.13 1.13,-11.18 4.21,-0.62 8.19,-6.17 5.37,-11.07 -1,0.26 -1.29,1.78 -1.29,1.78 0,0 -6.38,-3.92 -12,-3.38 a 7.05,7.05 0 0 0 1.7,1.7 20.9,20.9 0 0 0 -12.21,1 c 1,0.38 3.11,1.18 3.11,1.18 0,0 -11.17,3.43 -7,8 -9.12,0.75 0.12,19.35 7.73,22.56 7.61,3.21 16.29,-7.08 13.46,-10.59 z"
       style="fill:#263238"
       id="path410" />
    <path
       inkscape:connector-curvature="0"
       d="m 121.5,125.9 c -5,-3.16 -8.21,-1.42 -8.21,-1.42 0,0 4.86,1.75 8.21,1.42 z"
       style="fill:#263238"
       id="path412" />
    <path
       inkscape:connector-curvature="0"
       d="m 137,136.45 a 7.25,7.25 0 0 0 3.42,4.13 c 2.08,1.07 3.39,-0.94 3,-3.37 -0.31,-2.18 -1.76,-5.36 -3.95,-5.41 -2.19,-0.05 -3.27,2.41 -2.47,4.65 z"
       style="fill:#ffb573"
       id="path414" />
    <path
       inkscape:connector-curvature="0"
       d="m 117.64,160.84 c 11.67,-2.31 28.39,-3.41 39.62,-2.29 a 12.64,12.64 0 0 1 11.19,10.66 c 2.61,16.82 1,46.67 0,76.68 -25.45,10.67 -52.6,3.74 -52.6,3.74 -1,-6 0.77,-25.88 2,-36.54 -2.28,-10.74 -7,-22.88 -10.13,-37.13 a 12.63,12.63 0 0 1 9.92,-15.12 z"
       style="fill:#263238"
       id="path416" />
    <path
       inkscape:connector-curvature="0"
       d="m 166.23,164.94 5.15,8 c 1.74,2.69 3.52,5.34 5.3,7.94 q 1.35,2 2.73,3.81 c 0.9,1.26 1.82,2.48 2.75,3.63 0.93,1.15 1.88,2.26 2.78,3.24 a 22.85,22.85 0 0 0 2.42,2.31 l -1,-0.53 a 20.32,20.32 0 0 0 5.57,1.9 49.44,49.44 0 0 0 7.07,0.89 c 2.49,0.18 5,0.2 7.64,0.18 1.3,0 2.61,0 3.91,-0.09 l 3.87,-0.16 h 0.28 a 4.37,4.37 0 0 1 1.95,8.37 62.62,62.62 0 0 1 -8.31,3 68.22,68.22 0 0 1 -8.68,1.87 c -1.49,0.22 -3,0.37 -4.56,0.47 a 41.76,41.76 0 0 1 -4.76,0.06 32.32,32.32 0 0 1 -10.31,-2 5.34,5.34 0 0 1 -0.59,-0.28 l -0.42,-0.25 a 35.47,35.47 0 0 1 -5.33,-4 c -1.5,-1.32 -2.8,-2.67 -4.07,-4 a 103.51,103.51 0 0 1 -6.9,-8.21 c -2.14,-2.76 -4.12,-5.6 -6.05,-8.46 -1.93,-2.86 -3.71,-5.72 -5.47,-8.84 a 8.74,8.74 0 0 1 14.95,-9 z"
       style="fill:#263238"
       id="path418" />
  </g>
</svg>
