<?xml version="1.0" encoding="UTF-8" standalone="no"?>
<svg
   xmlns:dc="http://purl.org/dc/elements/1.1/"
   xmlns:cc="http://creativecommons.org/ns#"
   xmlns:rdf="http://www.w3.org/1999/02/22-rdf-syntax-ns#"
   xmlns:svg="http://www.w3.org/2000/svg"
   xmlns="http://www.w3.org/2000/svg"
   xmlns:sodipodi="http://sodipodi.sourceforge.net/DTD/sodipodi-0.dtd"
   xmlns:inkscape="http://www.inkscape.org/namespaces/inkscape"
   viewBox="0 0 400 300"
   width="406"
   height="306"
   class="illustration styles_illustrationTablet__1DWOa"
   version="1.1"
   id="svg143"
   sodipodi:docname="Report analysis _Flatline.svg"
   inkscape:version="0.92.5 (2060ec1f9f, 2020-04-08)">
  <metadata
     id="metadata149">
    <rdf:RDF>
      <cc:Work
         rdf:about="">
        <dc:format>image/svg+xml</dc:format>
        <dc:type
           rdf:resource="http://purl.org/dc/dcmitype/StillImage" />
      </cc:Work>
    </rdf:RDF>
  </metadata>
  <defs
     id="defs147" />
  <sodipodi:namedview
     pagecolor="#ffffff"
     bordercolor="#666666"
     borderopacity="1"
     objecttolerance="10"
     gridtolerance="10"
     guidetolerance="10"
     inkscape:pageopacity="0"
     inkscape:pageshadow="2"
     inkscape:window-width="1864"
     inkscape:window-height="1053"
     id="namedview145"
     showgrid="false"
     inkscape:zoom="2.1814013"
     inkscape:cx="172.75594"
     inkscape:cy="178.16876"
     inkscape:window-x="56"
     inkscape:window-y="-10"
     inkscape:window-maximized="1"
     inkscape:current-layer="_111_report_analysis_flatline" />
  <g
     id="_111_report_analysis_flatline"
     data-name="#111_report_analysis_flatline">
    <rect
       x="104.77"
       y="74.16"
       width="190.49"
       height="145.54"
       rx="13.31"
       fill="#fff"
       id="rect64" />
    <path
       d="M282,220.2H118.08a13.83,13.83,0,0,1-13.81-13.81V87.47a13.83,13.83,0,0,1,13.81-13.81H282a13.82,13.82,0,0,1,13.81,13.81V206.39A13.83,13.83,0,0,1,282,220.2ZM118.08,74.66a12.82,12.82,0,0,0-12.81,12.81V206.39a12.83,12.83,0,0,0,12.81,12.81H282a12.82,12.82,0,0,0,12.81-12.81V87.47A12.82,12.82,0,0,0,282,74.66Z"
       id="path66"
       fill="#231f20" />
    <rect
       x="127.56"
       y="57.22"
       width="144.91"
       height="138.06"
       fill="#0077f7"
       id="rect68" />
    <path
       d="M295.58,195.77H104.45a.5.5,0,0,1-.5-.5.51.51,0,0,1,.5-.5H295.58a.5.5,0,0,1,.5.5A.5.5,0,0,1,295.58,195.77Z"
       fill="#231f20"
       id="path70" />
    <circle
       cx="200.02"
       cy="206.35"
       r="4.57"
       fill="#fff"
       id="circle72" />
    <path
       d="M200,211.41a5.07,5.07,0,1,1,5.06-5.06A5.07,5.07,0,0,1,200,211.41Zm0-9.13a4.07,4.07,0,1,0,4.06,4.07A4.07,4.07,0,0,0,200,202.28Z"
       fill="#d1d3d4"
       id="path74" />
    <rect
       x="161.73"
       y="240.99"
       width="76.58"
       height="8.17"
       rx="3.8"
       fill="#fff"
       id="rect76" />
    <path
       d="M234.51,249.65h-69a4.29,4.29,0,0,1-4.29-4.29v-.58a4.29,4.29,0,0,1,4.29-4.29h69a4.3,4.3,0,0,1,4.3,4.29v.58A4.3,4.3,0,0,1,234.51,249.65Zm-69-8.16a3.29,3.29,0,0,0-3.29,3.29v.58a3.3,3.3,0,0,0,3.29,3.29h69a3.3,3.3,0,0,0,3.3-3.29v-.58a3.29,3.29,0,0,0-3.3-3.29Z"
       fill="#231f20"
       id="path78" />
    <polygon
       points="226.13 241.12 173.9 241.12 177.49 219.69 222.54 219.69 226.13 241.12"
       fill="#fff"
       id="polygon80" />
    <path
       d="M226.13,241.62H173.9a.49.49,0,0,1-.38-.18.46.46,0,0,1-.11-.4L177,219.61a.49.49,0,0,1,.49-.41h45a.5.5,0,0,1,.5.41L226.63,241a.52.52,0,0,1-.11.4A.53.53,0,0,1,226.13,241.62Zm-51.64-1h51l-3.42-20.42H177.91Z"
       fill="#231f20"
       id="path82" />
    <polygon
       points="175.7 230.41 223.26 223.95 222.54 219.69 177.49 219.69 175.7 230.41"
       fill="#231f20"
       id="polygon84" />
    <path
       d="M175.7,230.91a.48.48,0,0,1-.36-.16.52.52,0,0,1-.14-.43l1.8-10.71a.49.49,0,0,1,.49-.41h45a.5.5,0,0,1,.5.41l.71,4.25a.51.51,0,0,1-.09.38.5.5,0,0,1-.34.2l-47.56,6.46Zm2.21-10.71-1.61,9.62,46.38-6.3-.56-3.32Z"
       fill="#231f20"
       id="path86" />
    <rect
       x="141.08"
       y="133.11"
       width="13.91"
       height="11.02"
       fill="#fff"
       id="rect88" />
    <path
       d="M212.19,135.86H168.3a1,1,0,0,1,0-2h43.89a1,1,0,0,1,0,2Z"
       fill="#fdffff"
       id="path90" />
    <path
       d="M203,142.15H168.3a1,1,0,0,1,0-2H203a1,1,0,0,1,0,2Z"
       fill="#fdffff"
       id="path92" />
    <path
       d="M146.72,142a1.32,1.32,0,0,1-.28,0,1.51,1.51,0,0,1-1.05-.79l-1.31-2.53a1.5,1.5,0,1,1,2.66-1.38l.44.85,3-2.61a1.5,1.5,0,1,1,2,2.27l-4.46,3.85A1.47,1.47,0,0,1,146.72,142Z"
       fill="#0077f7"
       id="path94" />
    <rect
       x="141.08"
       y="152.35"
       width="13.91"
       height="11.02"
       fill="#fff"
       id="rect96" />
    <path
       d="M212.19,155.1H168.3a1,1,0,0,1,0-2h43.89a1,1,0,0,1,0,2Z"
       fill="#fdffff"
       id="path98" />
    <path
       d="M203,161.4H168.3a1,1,0,0,1,0-2H203a1,1,0,0,1,0,2Z"
       fill="#fdffff"
       id="path100" />
    <path
       d="M146.72,161.2a1.33,1.33,0,0,1-.28,0,1.53,1.53,0,0,1-1.05-.78l-1.31-2.54a1.5,1.5,0,1,1,2.66-1.38l.44.85,3-2.61a1.5,1.5,0,1,1,2,2.27l-4.46,3.85A1.48,1.48,0,0,1,146.72,161.2Z"
       fill="#0077f7"
       id="path102" />
    <path
       d="M227.47,132.57a18.07,18.07,0,0,0-1.75,1.75A18.79,18.79,0,0,0,221,145.59h8.27a10.68,10.68,0,0,1,2.26-5.42,10.35,10.35,0,0,1,1.75-1.75,10.63,10.63,0,0,1,5.42-2.25v-8.28A18.89,18.89,0,0,0,227.47,132.57Z"
       fill="#fff"
       id="path104" />
    <path
       d="M258.91,145.59a18.84,18.84,0,0,0-4.67-11.27l-5.85,5.85a10.76,10.76,0,0,1,2.25,5.42c0,.41.07.82.07,1.24s0,.83-.07,1.24a10.68,10.68,0,0,1-2.26,5.42,10.35,10.35,0,0,1-1.75,1.75,10.6,10.6,0,0,1-5.42,2.25,10.93,10.93,0,0,1-2.47,0,10.67,10.67,0,0,1-5.42-2.25,10.35,10.35,0,0,1-1.75-1.75,10.73,10.73,0,0,1-2.26-5.42H221a18.79,18.79,0,0,0,4.68,11.27,18.07,18.07,0,0,0,1.75,1.75,18.91,18.91,0,0,0,11.27,4.68c.41,0,.82,0,1.23,0s.83,0,1.24,0a18.89,18.89,0,0,0,11.27-4.68,17,17,0,0,0,1.75-1.75,18.79,18.79,0,0,0,4.68-11.27c0-.41,0-.82,0-1.24S258.94,146,258.91,145.59Z"
       fill="#fff"
       id="path106" />
    <path
       d="M252.49,132.57a18.92,18.92,0,0,0-11.28-4.68v8.28a10.67,10.67,0,0,1,5.43,2.25Z"
       fill="#231f20"
       id="path108" />
    <path
       d="M246.64,138.92a.45.45,0,0,1-.31-.11,10.23,10.23,0,0,0-5.18-2.15.5.5,0,0,1-.44-.49v-8.28a.48.48,0,0,1,.16-.36.5.5,0,0,1,.37-.14,19.25,19.25,0,0,1,11.58,4.81.53.53,0,0,1,.17.36.49.49,0,0,1-.15.36L247,138.78A.52.52,0,0,1,246.64,138.92Zm-4.93-3.19a11.15,11.15,0,0,1,4.88,2l5.16-5.16a18.27,18.27,0,0,0-10-4.17Z"
       fill="#231f20"
       id="path110" />
    <path
       d="M255,178.84H141.08a1,1,0,0,1,0-2H255a1,1,0,0,1,0,2Z"
       fill="#231f20"
       id="path112" />
    <path
       d="M214.91,119H141.08a1,1,0,0,1-1-1V78.3a1,1,0,1,1,2,0V117h72.83a1,1,0,0,1,0,2Z"
       fill="#231f20"
       id="path114" />
    <path
       d="M145.41,114.07A.91.91,0,0,1,145,114a1,1,0,0,1-.44-1.34c.34-.66,8.34-16.22,18.81-19.47,6-1.88,8.11,1.57,9.93,4.61,1.64,2.75,3.06,5.12,7.16,4.83,4.47-.32,7.07-4.78,9.58-9.1s5.24-9,10.06-8.82a98,98,0,0,0,12,0,1,1,0,1,1,.19,2,98.93,98.93,0,0,1-12.3,0c-3.6-.12-5.86,3.73-8.25,7.83-2.64,4.54-5.64,9.69-11.17,10.09-5.34.37-7.38-3-9-5.8-1.78-3-3.07-5.14-7.62-3.73-9.67,3-17.54,18.31-17.62,18.47A1,1,0,0,1,145.41,114.07Z"
       fill="#fdffff"
       id="path116" />
    <path
       d="M262,119h-32.1a1,1,0,0,1-1-1V83.21a1,1,0,0,1,1-1H262a1,1,0,0,1,1,1V118A1,1,0,0,1,262,119Zm-31.1-2H261V84.21h-30.1Z"
       fill="#fdffff"
       id="path118" />
    <path
       d="M243.72,119a1,1,0,0,1-1-1V83.21a1,1,0,0,1,2,0V118A1,1,0,0,1,243.72,119Z"
       fill="#fdffff"
       id="path120" />
    <path
       d="M262,93h-32.1a1,1,0,0,1,0-2H262a1,1,0,0,1,0,2Z"
       fill="#fdffff"
       id="path122" />
    <path
       d="M158.37,71.78A2.68,2.68,0,0,1,155.93,70c-1-2.3-2.66-8.66-2.53-10,.15-1.6.92-2,1.37-2,1-.16,2,.78,2.72,2.31a63.16,63.16,0,0,1,1.77,7.48.5.5,0,1,1-1,.19,66.77,66.77,0,0,0-1.71-7.27c-.55-1.27-1.31-1.78-1.65-1.72s-.46.48-.52,1.14c-.1,1,1.4,7,2.45,9.5a1.63,1.63,0,0,0,1.91,1.13c1.12-.3,2.11-1.82,1.79-4.55-.64-5.44-3.81-12.56-5.22-14.2a1.37,1.37,0,0,0-1.82-.45c-1,.6-1.55,2.52-.43,5.3a.5.5,0,0,1-.93.38c-1.34-3.35-.54-5.69.84-6.53a2.36,2.36,0,0,1,3.1.65c1.7,2,4.82,9.37,5.45,14.73.4,3.33-1,5.23-2.52,5.64A2.46,2.46,0,0,1,158.37,71.78Z"
       fill="#231f20"
       id="path124" />
  </g>
</svg>
