<?xml version="1.0" encoding="UTF-8" standalone="no"?>
<svg
   xmlns:dc="http://purl.org/dc/elements/1.1/"
   xmlns:cc="http://creativecommons.org/ns#"
   xmlns:rdf="http://www.w3.org/1999/02/22-rdf-syntax-ns#"
   xmlns:svg="http://www.w3.org/2000/svg"
   xmlns="http://www.w3.org/2000/svg"
   xmlns:sodipodi="http://sodipodi.sourceforge.net/DTD/sodipodi-0.dtd"
   xmlns:inkscape="http://www.inkscape.org/namespaces/inkscape"
   viewBox="0 0 400 300"
   width="406"
   height="306"
   class="illustration styles_illustrationTablet__1DWOa"
   version="1.1"
   id="svg167"
   sodipodi:docname="Finance analytics _Flatline.svg"
   inkscape:version="0.92.5 (2060ec1f9f, 2020-04-08)">
  <metadata
     id="metadata173">
    <rdf:RDF>
      <cc:Work
         rdf:about="">
        <dc:format>image/svg+xml</dc:format>
        <dc:type
           rdf:resource="http://purl.org/dc/dcmitype/StillImage" />
      </cc:Work>
    </rdf:RDF>
  </metadata>
  <defs
     id="defs171" />
  <sodipodi:namedview
     pagecolor="#ffffff"
     bordercolor="#666666"
     borderopacity="1"
     objecttolerance="10"
     gridtolerance="10"
     guidetolerance="10"
     inkscape:pageopacity="0"
     inkscape:pageshadow="2"
     inkscape:window-width="1864"
     inkscape:window-height="1053"
     id="namedview169"
     showgrid="false"
     inkscape:zoom="1.0907007"
     inkscape:cx="79.137545"
     inkscape:cy="158.29337"
     inkscape:window-x="56"
     inkscape:window-y="-10"
     inkscape:window-maximized="1"
     inkscape:current-layer="_554_finance_analytics_flatline" />
  <g
     id="_554_finance_analytics_flatline"
     data-name="#554_finance_analytics_flatline">
    <rect
       x="258.61"
       y="178.76"
       width="70.16"
       height="65.34"
       transform="translate(587.38 422.87) rotate(-180)"
       fill="#0077f7"
       id="rect14" />
    <path
       d="M328.77,244.6H258.61a.5.5,0,0,1-.5-.5V178.76a.5.5,0,0,1,.5-.5h70.16a.5.5,0,0,1,.5.5V244.1A.5.5,0,0,1,328.77,244.6Zm-69.66-1h69.16V179.26H259.11Z"
       fill="#231f20"
       id="path16" />
    <rect
       x="168.43"
       y="148"
       width="70.16"
       height="96.1"
       transform="translate(407.03 392.1) rotate(-180)"
       fill="#0077f7"
       id="rect18" />
    <path
       d="M238.6,244.6H168.43a.5.5,0,0,1-.5-.5V148a.51.51,0,0,1,.5-.5H238.6a.51.51,0,0,1,.5.5v96.1A.5.5,0,0,1,238.6,244.6Zm-69.67-1H238.1V148.5H168.93Z"
       fill="#231f20"
       id="path20" />
    <rect
       x="78.26"
       y="98.16"
       width="70.16"
       height="145.94"
       transform="translate(226.68 342.26) rotate(-180)"
       fill="#0077f7"
       id="rect22" />
    <path
       d="M148.42,244.6H78.26a.5.5,0,0,1-.5-.5V98.16a.5.5,0,0,1,.5-.5h70.16a.5.5,0,0,1,.5.5V244.1A.5.5,0,0,1,148.42,244.6Zm-69.66-1h69.16V98.66H78.76Z"
       fill="#231f20"
       id="path24" />
    <polygon
       points="275.9 136.28 275.9 149.3 266.32 149.3 275.9 154.88 275.9 170.4 323.73 170.4 323.73 136.28 275.9 136.28"
       fill="#fff"
       id="polygon26" />
    <path
       d="M323.73,170.9H275.9a.51.51,0,0,1-.5-.5V155.17l-9.33-5.44a.5.5,0,0,1,.25-.93h9.08V136.28a.51.51,0,0,1,.5-.5h47.83a.5.5,0,0,1,.5.5V170.4A.5.5,0,0,1,323.73,170.9Zm-47.33-1h46.83V136.78H276.4V149.3a.5.5,0,0,1-.5.5h-7.73l8,4.65a.5.5,0,0,1,.25.43Z"
       fill="#231f20"
       id="path28" />
    <path
       d="m 183.71807,108.25201 c 0.13,-0.39 0.26,-0.78 0.4,-1.17 0.07,-0.2 0.15,-0.4 0.23,-0.6 a 0.58,0.58 0 0 1 0.62,-0.38 c 0.32,0 0.63,0.11 0.94,0.16 a 4.43,4.43 0 0 0 0.51,0.06 0.52,0.52 0 0 0 0.35,-0.11 c 0.36,-0.35 0.71,-0.71 1.05,-1.07 a 0.53,0.53 0 0 0 0.11,-0.5 c -0.08,-0.38 -0.17,-0.76 -0.25,-1.14 a 1.38,1.38 0 0 1 0,-0.45 0.42,0.42 0 0 1 0.14,-0.29 6.88,6.88 0 0 1 1.89,-0.86 0.48,0.48 0 0 1 0.54,0.19 c 0.24,0.33 0.49,0.66 0.72,1 a 0.79,0.79 0 0 0 0.75,0.38 c 0.41,0 0.83,0 1.25,-0.06 a 0.47,0.47 0 0 0 0.38,-0.23 c 0.15,-0.22 0.29,-0.44 0.43,-0.66 0.14,-0.22 0.25,-0.39 0.38,-0.57 a 0.49,0.49 0 0 1 0.58,-0.2 c 0.58,0.2 1.16,0.4 1.73,0.62 a 0.51,0.51 0 0 1 0.31,0.56 c 0,0.32 -0.1,0.64 -0.16,1 0,0.15 0,0.3 -0.05,0.45 a 0.6,0.6 0 0 0 0.19,0.53 c 0.3,0.29 0.61,0.57 0.91,0.87 a 0.66,0.66 0 0 0 0.67,0.19 l 1.24,-0.28 a 0.55,0.55 0 0 1 0.69,0.33 c 0.24,0.49 0.47,1 0.68,1.49 a 0.59,0.59 0 0 1 -0.21,0.83 c -0.21,0.16 -0.44,0.31 -0.66,0.47 l -0.46,0.37 a 0.55,0.55 0 0 0 -0.19,0.42 c 0,0.44 0,0.87 0,1.3 a 0.68,0.68 0 0 0 0.35,0.58 l 0.71,0.42 c 0.14,0.09 0.29,0.18 0.42,0.28 a 0.49,0.49 0 0 1 0.19,0.62 c -0.19,0.53 -0.38,1 -0.58,1.56 a 1,1 0 0 1 -0.13,0.23 0.44,0.44 0 0 1 -0.48,0.22 l -1.13,-0.18 h -0.08 a 0.82,0.82 0 0 0 -0.86,0.3 c -0.21,0.25 -0.45,0.48 -0.68,0.72 a 0.81,0.81 0 0 0 -0.21,0.81 c 0.09,0.37 0.18,0.73 0.26,1.1 a 0.54,0.54 0 0 1 -0.36,0.73 c -0.5,0.24 -1,0.47 -1.54,0.69 a 0.52,0.52 0 0 1 -0.69,-0.18 c -0.2,-0.25 -0.38,-0.52 -0.57,-0.78 -0.4,-0.57 -0.5,-0.62 -1.2,-0.58 h -0.81 a 0.74,0.74 0 0 0 -0.64,0.37 c -0.16,0.27 -0.32,0.55 -0.49,0.81 a 3,3 0 0 1 -0.31,0.39 0.37,0.37 0 0 1 -0.43,0.11 l -1.64,-0.61 a 1.43,1.43 0 0 1 -0.21,-0.12 0.45,0.45 0 0 1 -0.23,-0.49 l 0.18,-1.11 a 1.87,1.87 0 0 0 0,-0.34 0.6,0.6 0 0 0 -0.19,-0.5 l -0.88,-0.83 a 0.65,0.65 0 0 0 -0.65,-0.15 l -1.1,0.25 v 0 c -0.48,0.09 -0.63,0 -0.84,-0.42 -0.21,-0.42 -0.44,-1 -0.64,-1.49 a 0.49,0.49 0 0 1 0.19,-0.68 c 0.3,-0.22 0.59,-0.44 0.9,-0.64 a 0.86,0.86 0 0 0 0.44,-0.86 c 0,-0.39 0,-0.78 -0.06,-1.17 a 0.5,0.5 0 0 0 -0.23,-0.41 l -1,-0.62 a 1,1 0 0 1 -0.51,-0.53 z m 12.39,2.17 a 3.69,3.69 0 0 0 -3.72,-3.7 3.76,3.76 0 0 0 -3.65,3.71 3.71,3.71 0 0 0 3.67,3.68 3.65,3.65 0 0 0 3.7,-3.69 z"
       id="path30"
       inkscape:connector-curvature="0"
       style="fill:#ffffff" />
    <path
       d="m 190.29807,119.63201 a 0.89,0.89 0 0 1 -0.31,-0.06 l -1.64,-0.61 a 1.39,1.39 0 0 1 -0.28,-0.16 1,1 0 0 1 -0.48,-1 l 0.18,-1.12 a 1.33,1.33 0 0 0 0,-0.28 c 0,-0.08 0,-0.1 0,-0.11 l -0.89,-0.83 a 0.17,0.17 0 0 0 -0.19,0 l -0.8,0.19 -0.3,0.07 a 1.12,1.12 0 0 1 -1.45,-0.68 c -0.24,-0.5 -0.45,-1 -0.66,-1.52 a 1,1 0 0 1 0.36,-1.27 q 0.45,-0.34 0.93,-0.66 a 0.39,0.39 0 0 0 0.21,-0.41 c 0,-0.25 0,-0.5 0,-0.76 v -0.41 l -1,-0.64 a 1.52,1.52 0 0 1 -0.72,-0.79 0.88,0.88 0 0 1 0,-0.16 v -0.14 a 0.41,0.41 0 0 1 0,-0.16 l 0.1,-0.32 0.3,-0.86 c 0.07,-0.21 0.16,-0.42 0.24,-0.62 a 1.07,1.07 0 0 1 1.14,-0.68 c 0.21,0 0.43,0.06 0.65,0.1 l 0.45,0.08 a 2.4,2.4 0 0 0 0.28,0 14.41,14.41 0 0 0 1.05,-1 l -0.13,-0.55 c -0.05,-0.22 -0.1,-0.43 -0.14,-0.65 a 2,2 0 0 1 -0.05,-0.6 0.88,0.88 0 0 1 0.38,-0.66 7.16,7.16 0 0 1 2,-0.92 0.94,0.94 0 0 1 1.07,0.38 l 0.25,0.34 0.49,0.66 c 0.1,0.15 0.16,0.17 0.29,0.16 h 0.84 0.43 c 0.07,-0.14 0.16,-0.27 0.24,-0.41 l 0.25,-0.38 0.32,-0.47 a 1,1 0 0 1 1.14,-0.37 c 0.59,0.2 1.17,0.4 1.75,0.63 a 1,1 0 0 1 0.63,1.07 c 0,0.23 -0.07,0.45 -0.11,0.68 l -0.05,0.31 c 0,0.13 0,0.27 -0.06,0.41 a 0.18,0.18 0 0 0 0,0.13 l 0.21,0.19 c 0.24,0.22 0.48,0.45 0.71,0.69 0.06,0.06 0.1,0.08 0.22,0 l 1.23,-0.28 a 1,1 0 0 1 1.25,0.6 c 0.24,0.5 0.47,1 0.69,1.51 a 1.07,1.07 0 0 1 -0.36,1.42 l -0.41,0.3 -0.26,0.18 -0.43,0.34 v 0.35 c 0,0.32 0,0.65 0,1 a 0.19,0.19 0 0 0 0.1,0.17 l 0.3,0.17 0.42,0.25 a 4.87,4.87 0 0 1 0.47,0.32 1,1 0 0 1 0.35,1.19 c -0.19,0.52 -0.38,1 -0.58,1.56 a 1.72,1.72 0 0 1 -0.17,0.31 1,1 0 0 1 -1,0.46 l -1.13,-0.19 h -0.11 a 0.32,0.32 0 0 0 -0.37,0.14 c -0.16,0.18 -0.33,0.36 -0.5,0.53 l -0.2,0.2 a 0.35,0.35 0 0 0 -0.09,0.35 c 0.1,0.37 0.19,0.74 0.27,1.12 a 1,1 0 0 1 -0.63,1.28 c -0.52,0.25 -1,0.48 -1.56,0.7 a 1,1 0 0 1 -1.28,-0.33 c -0.17,-0.21 -0.33,-0.44 -0.49,-0.66 l -0.1,-0.14 c -0.28,-0.4 -0.28,-0.4 -0.76,-0.37 h -0.81 a 0.26,0.26 0 0 0 -0.24,0.14 l -0.16,0.27 -0.34,0.56 a 4.14,4.14 0 0 1 -0.37,0.46 0.93,0.93 0 0 1 -0.58,0.26 z m -3.52,-5.21 a 1.16,1.16 0 0 1 0.79,0.32 l 0.88,0.82 a 1.08,1.08 0 0 1 0.35,0.9 c 0,0.13 0,0.26 0,0.39 l -0.18,1.11 0.13,0.06 1.56,0.59 a 1.93,1.93 0 0 0 0.22,-0.28 l 0.32,-0.52 0.17,-0.28 a 1.21,1.21 0 0 1 1,-0.61 h 0.82 a 1.46,1.46 0 0 1 1.63,0.79 l 0.1,0.14 c 0.15,0.21 0.3,0.42 0.46,0.62 v 0 h 0.09 v 0 c 0.52,-0.21 1,-0.44 1.53,-0.68 l 0.1,-0.06 a 0.44,0.44 0 0 1 0,-0.12 c -0.08,-0.36 -0.16,-0.72 -0.25,-1.07 a 1.3,1.3 0 0 1 0.33,-1.29 l 0.21,-0.22 c 0.15,-0.15 0.31,-0.3 0.45,-0.47 a 1.29,1.29 0 0 1 1.35,-0.46 l 1.18,0.19 c 0,-0.06 0.06,-0.11 0.06,-0.13 0.2,-0.52 0.39,-1 0.58,-1.56 a 2.1,2.1 0 0 0 -0.44,-0.28 l -0.7,-0.41 a 1.19,1.19 0 0 1 -0.59,-1 c 0,-0.34 0,-0.67 0,-1 v -0.3 a 1.07,1.07 0 0 1 0.37,-0.82 q 0.24,-0.21 0.48,-0.39 l 0.29,-0.2 c 0.12,-0.09 0.24,-0.17 0.36,-0.27 a 0.6,0.6 0 0 0 0.11,-0.1 0.44,0.44 0 0 0 0,-0.13 c -0.21,-0.5 -0.44,-1 -0.67,-1.47 l -0.13,-0.06 -1.24,0.28 a 1.18,1.18 0 0 1 -1.14,-0.33 c -0.22,-0.23 -0.46,-0.45 -0.69,-0.66 l -0.2,-0.2 a 1.11,1.11 0 0 1 -0.35,-0.93 3.86,3.86 0 0 1 0.06,-0.49 l 0.06,-0.33 c 0,-0.2 0.07,-0.4 0.09,-0.6 -0.56,-0.26 -1.13,-0.46 -1.7,-0.66 -0.11,0.16 -0.21,0.3 -0.3,0.45 l -0.24,0.37 -0.28,0.42 a 0.94,0.94 0 0 1 -0.77,0.45 h -0.44 -0.8 a 1.24,1.24 0 0 1 -1.19,-0.59 c -0.15,-0.22 -0.3,-0.43 -0.46,-0.63 l -0.26,-0.35 a 6,6 0 0 0 -1.67,0.74 1.36,1.36 0 0 0 0,0.27 c 0,0.21 0.09,0.42 0.14,0.63 l 0.11,0.51 a 1,1 0 0 1 -0.23,0.94 c -0.35,0.37 -0.71,0.74 -1.07,1.09 a 1,1 0 0 1 -0.69,0.25 2.7,2.7 0 0 1 -0.48,0 l -0.45,-0.08 -0.58,-0.09 c 0,0 -0.07,0 -0.11,0.08 -0.04,0.08 -0.15,0.37 -0.22,0.57 l -0.29,0.84 -0.13,0.2 a 1.16,1.16 0 0 0 0.27,0.2 l 1,0.62 a 1,1 0 0 1 0.46,0.81 v 0.42 c 0,0.25 0,0.49 0,0.74 a 1.36,1.36 0 0 1 -0.67,1.31 c -0.3,0.2 -0.58,0.4 -0.86,0.62 -0.07,0 -0.08,0.07 -0.08,0.07 0.24,0.52 0.45,1 0.67,1.49 a 1,1 0 0 0 0.1,0.17 h 0.2 l 0.33,-0.08 0.78,-0.18 a 1.22,1.22 0 0 1 0.36,-0.09 z m 5.64,0.19 v 0 a 4.17,4.17 0 0 1 -2.93,-7.14 4.11,4.11 0 0 1 2.91,-1.25 4.18,4.18 0 0 1 4.22,4.19 4,4 0 0 1 -1.12,2.89 4.2,4.2 0 0 1 -3.08,1.31 z m -0.05,-7.39 a 3.19,3.19 0 0 0 -2.18,1 3.16,3.16 0 0 0 -1,2.25 3.19,3.19 0 0 0 3.17,3.18 v 0 a 3.12,3.12 0 0 0 2.34,-1 3,3 0 0 0 0.85,-2.15 v 0 a 3.19,3.19 0 0 0 -3.22,-3.2 z"
       id="path32"
       inkscape:connector-curvature="0"
       style="fill:#d1d3d4" />
    <polygon
       points="162.33 79.39 153.65 75.48 153.65 56.33 108.44 56.33 108.44 85.56 153.65 85.56 153.65 79.39 162.33 79.39"
       fill="#fff"
       id="polygon34" />
    <path
       d="M153.65,86.06H108.44a.5.5,0,0,1-.5-.5V56.32a.51.51,0,0,1,.5-.5h45.21a.5.5,0,0,1,.5.5V75.15l8.39,3.78a.5.5,0,0,1-.21,1h-8.18v5.67A.5.5,0,0,1,153.65,86.06Zm-44.71-1h44.21V79.39a.5.5,0,0,1,.5-.5H160l-6.55-3a.5.5,0,0,1-.3-.45V56.82H108.94Z"
       fill="#231f20"
       id="path36" />
    <path
       d="M131.79,64.22,138.53,71a.35.35,0,0,0,.27.11h10.34a10,10,0,1,1-17.44-6.94Z"
       fill="#0077f7"
       id="path38" />
    <path
       d="M139.53,60.75v9.62h.1l9.31,0c.21,0,.21,0,.2-.21A10,10,0,0,0,140,60.8Z"
       fill="#d1d3d4"
       id="path40" />
    <path
       d="M138.82,70.24V60.76a10.73,10.73,0,0,0-3.27.69,10.06,10.06,0,0,0-3.36,2.17Z"
       fill="#d1d3d4"
       id="path42" />
    <path
       d="M124.91,65.84H113.34a.5.5,0,0,1-.5-.5.5.5,0,0,1,.5-.5h11.57a.5.5,0,0,1,.5.5A.5.5,0,0,1,124.91,65.84Z"
       fill="#d1d3d4"
       id="path44" />
    <path
       d="M124.91,70.71H113.34a.5.5,0,0,1-.5-.5.5.5,0,0,1,.5-.5h11.57a.5.5,0,0,1,.5.5A.5.5,0,0,1,124.91,70.71Z"
       fill="#d1d3d4"
       id="path46" />
    <path
       d="M121,75.58h-7.61a.5.5,0,0,1-.5-.5.5.5,0,0,1,.5-.5H121a.5.5,0,0,1,.5.5A.5.5,0,0,1,121,75.58Z"
       fill="#d1d3d4"
       id="path48" />
    <rect
       x="285.92"
       y="150.6"
       width="3.71"
       height="15.13"
       fill="#0077f7"
       id="rect50" />
    <rect
       x="292.76"
       y="156.85"
       width="3.71"
       height="8.88"
       fill="#0077f7"
       id="rect52" />
    <rect
       x="299.6"
       y="152.78"
       width="3.71"
       height="12.95"
       fill="#0077f7"
       id="rect54" />
    <rect
       x="306.45"
       y="160.17"
       width="3.71"
       height="5.56"
       fill="#0077f7"
       id="rect56" />
    <rect
       x="313.29"
       y="152.78"
       width="3.71"
       height="12.95"
       fill="#0077f7"
       id="rect58" />
    <path
       d="M316.91,141.43h-6.28a.48.48,0,0,1-.47-.48.47.47,0,0,1,.47-.48h6.28a.48.48,0,0,1,.48.48A.49.49,0,0,1,316.91,141.43Z"
       fill="#d1d3d4"
       id="path60" />
    <path
       d="M314.73,143.76h-4.1a.48.48,0,0,1-.47-.48.47.47,0,0,1,.47-.48h4.1a.48.48,0,0,1,.48.48A.49.49,0,0,1,314.73,143.76Z"
       fill="#d1d3d4"
       id="path62" />
    <path
       d="M308.76,153.32c-2.11,0-3.88-2.27-5.31-4.09-.75-1-1.68-2.15-2.12-2.15h0a6.39,6.39,0,0,0-2.36,1c-1.31.76-2.78,1.62-4.25,1.54-2.61-.14-7.21-5.49-7.72-6.1a.47.47,0,0,1,.05-.67.49.49,0,0,1,.68.06c1.32,1.56,5.18,5.65,7,5.76a7.76,7.76,0,0,0,3.71-1.42,7,7,0,0,1,2.81-1.17c.87,0,1.79,1.1,2.91,2.52,1.32,1.69,3,3.8,4.64,3.72,1.44-.07,2.12-1.32,2.92-2.77s1.62-3,3.33-3.28a.49.49,0,0,1,.56.38.48.48,0,0,1-.38.56c-1.27.24-1.95,1.48-2.67,2.8-.82,1.49-1.74,3.17-3.71,3.26Z"
       fill="#d1d3d4"
       id="path64" />
    <path
       d="M320.17,166.21H282.92a.48.48,0,0,1,0-1h37.25a.48.48,0,0,1,0,1Z"
       fill="#d1d3d4"
       id="path66" />
    <path
       d="M287.45,144.33a1.1,1.1,0,1,1,1.1-1.1A1.09,1.09,0,0,1,287.45,144.33Zm0-1.24a.14.14,0,0,0-.14.14c0,.16.29.16.29,0A.15.15,0,0,0,287.45,143.09Z"
       fill="#d1d3d4"
       id="path68" />
    <path
       d="M315.19,147.88a1.1,1.1,0,0,1,0-2.2,1.1,1.1,0,1,1,0,2.2Zm0-1.24a.14.14,0,0,0-.14.14c0,.16.28.16.28,0A.14.14,0,0,0,315.19,146.64Z"
       fill="#d1d3d4"
       id="path70" />
    <path
       d="m 197.55807,94.712014 v -2.84 c -1,-0.28 -2,-0.49 -3,-0.82 a 8.76,8.76 0 0 1 -4.61,-3.46 8.59,8.59 0 0 1 -1.33,-4.8 h 5.53 a 4.4,4.4 0 0 0 3.39,4.1 v -7.52 c -1.11,-0.32 -2.21,-0.62 -3.31,-1 a 7.79,7.79 0 0 1 -3.22,-1.83 6.42,6.42 0 0 1 -1.79,-3.46 9,9 0 0 1 0.35,-4.82 8,8 0 0 1 4.86,-4.82 25.51,25.51 0 0 1 2.8,-0.72 l 0.33,-0.07 v -3.75 h 5.18 v 0.36 c 0,1.08 0,2.15 0,3.22 0,0.27 0.09,0.35 0.34,0.41 a 10.84,10.84 0 0 1 4.83,2.25 7.83,7.83 0 0 1 2.74,4.81 c 0.09,0.51 0.13,1 0.2,1.58 h -5.63 a 3.94,3.94 0 0 0 -2.44,-3.57 v 7 l 0.61,0.14 a 20.06,20.06 0 0 1 4.41,1.41 6.41,6.41 0 0 1 3.83,5.34 8.39,8.39 0 0 1 -1.46,6.1 8.5,8.5 0 0 1 -4.18,3.1 c -1,0.36 -2.12,0.59 -3.24,0.9 v 2.75 z m 5.2,-14.26 v 6.53 a 4.72,4.72 0 0 0 2.29,-1 c 1.2,-1 1.63,-3.45 -0.13,-4.52 a 21.62,21.62 0 0 0 -2.16,-1.01 z m -5.22,-6.68 v -6.3 a 19,19 0 0 0 -2,1 2.72,2.72 0 0 0 0.17,4.55 c 0.59,0.3 1.2,0.49 1.83,0.75 z"
       id="path72"
       inkscape:connector-curvature="0"
       style="fill:#0077f7" />
    <path
       d="m 202.73807,95.212014 h -5.18 a 0.51,0.51 0 0 1 -0.5,-0.5 v -2.45 l -0.59,-0.15 c -0.71,-0.18 -1.39,-0.36 -2.07,-0.59 a 9.32,9.32 0 0 1 -4.87,-3.66 9,9 0 0 1 -1.41,-5.07 0.48,0.48 0 0 1 0.5,-0.5 h 5.53 a 0.49,0.49 0 0 1 0.5,0.43 3.87,3.87 0 0 0 2.39,3.47 v -6.44 l -0.63,-0.18 c -0.78,-0.23 -1.56,-0.45 -2.33,-0.69 a 8.37,8.37 0 0 1 -3.42,-2 6.82,6.82 0 0 1 -1.93,-3.75 9.48,9.48 0 0 1 0.37,-5.09 8.52,8.52 0 0 1 5.15,-5.1 14.36,14.36 0 0 1 2,-0.55 l 0.82,-0.18 v -3.31 a 0.5,0.5 0 0 1 0.5,-0.5 h 5.18 a 0.5,0.5 0 0 1 0.5,0.5 v 1.26 c 0,0.75 0,1.5 0,2.25 a 11.25,11.25 0 0 1 5,2.35 8.29,8.29 0 0 1 2.91,5.1 c 0.07,0.36 0.11,0.73 0.15,1.1 l 0.06,0.51 a 0.51,0.51 0 0 1 -0.5,0.56 h -5.65 a 0.51,0.51 0 0 1 -0.5,-0.47 3.39,3.39 0 0 0 -1.44,-2.74 v 5.75 h 0.21 a 19.86,19.86 0 0 1 4.52,1.45 6.87,6.87 0 0 1 4.11,5.73 8.8,8.8 0 0 1 -1.55,6.45 8.91,8.91 0 0 1 -4.42,3.28 c -0.73,0.25 -1.46,0.44 -2.24,0.64 l -0.69,0.2 v 2.37 a 0.5,0.5 0 0 1 -0.48,0.52 z m -4.68,-1 h 4.16 v -2.25 a 0.5,0.5 0 0 1 0.37,-0.48 l 1,-0.28 c 0.76,-0.19 1.47,-0.38 2.17,-0.62 a 8,8 0 0 0 3.93,-2.91 7.79,7.79 0 0 0 1.37,-5.75 5.87,5.87 0 0 0 -3.54,-4.95 19.37,19.37 0 0 0 -4.31,-1.37 l -0.44,-0.1 -0.17,-0.05 a 0.49,0.49 0 0 1 -0.39,-0.48 v -7 a 0.54,0.54 0 0 1 0.23,-0.43 0.51,0.51 0 0 1 0.48,0 4.38,4.38 0 0 1 2.68,3.53 h 4.62 c 0,-0.34 -0.07,-0.67 -0.13,-1 a 7.33,7.33 0 0 0 -2.57,-4.51 10.47,10.47 0 0 0 -4.61,-2.15 0.82,0.82 0 0 1 -0.74,-0.89 c 0,-0.78 0,-1.55 0,-2.32 v -0.76 h -4.18 v 3.25 a 0.49,0.49 0 0 1 -0.4,0.49 h -0.12 -0.19 l -0.89,0.2 a 12.49,12.49 0 0 0 -1.85,0.5 7.54,7.54 0 0 0 -4.57,4.53 8.3,8.3 0 0 0 -0.32,4.55 5.81,5.81 0 0 0 1.65,3.22 7.14,7.14 0 0 0 3,1.71 c 0.76,0.25 1.53,0.47 2.31,0.69 l 1,0.28 a 0.5,0.5 0 0 1 0.36,0.48 v 7.52 a 0.49,0.49 0 0 1 -0.19,0.39 0.5,0.5 0 0 1 -0.44,0.09 4.81,4.81 0 0 1 -3.62,-4.02 h -4.59 a 7.85,7.85 0 0 0 1.24,4 8.27,8.27 0 0 0 4.36,3.26 c 0.64,0.22 1.29,0.39 2,0.57 l 1,0.25 a 0.5,0.5 0 0 1 0.36,0.48 z m 4.7,-6.73 a 0.47,0.47 0 0 1 -0.32,-0.12 0.53,0.53 0 0 1 -0.18,-0.38 v -6.53 a 0.5,0.5 0 0 1 0.71,-0.45 l 0.7,0.3 a 11,11 0 0 1 1.51,0.72 2.93,2.93 0 0 1 1.41,2.36 3.64,3.64 0 0 1 -1.22,3 5.16,5.16 0 0 1 -2.53,1.12 z m 0.5,-6.27 v 5.11 a 4,4 0 0 0 1.47,-0.77 2.66,2.66 0 0 0 0.86,-2.14 1.93,1.93 0 0 0 -0.93,-1.57 11,11 0 0 0 -1.38,-0.65 z m -5.72,-6.89 a 0.46,0.46 0 0 1 -0.19,0 l -0.58,-0.23 c -0.44,-0.17 -0.85,-0.33 -1.26,-0.53 a 2.92,2.92 0 0 1 -1.58,-2.48 3.29,3.29 0 0 1 1.36,-2.93 9,9 0 0 1 1.38,-0.73 l 0.65,-0.31 a 0.49,0.49 0 0 1 0.72,0.45 v 6.3 a 0.48,0.48 0 0 1 -0.22,0.41 0.47,0.47 0 0 1 -0.28,0.05 z m -0.5,-6 a 8.31,8.31 0 0 0 -1.19,0.63 2.32,2.32 0 0 0 -0.92,2 1.91,1.91 0 0 0 1,1.64 11.52,11.52 0 0 0 1.07,0.47 z"
       id="path74"
       inkscape:connector-curvature="0"
       style="fill:#231f20" />
    <path
       d="M238.22,59.57S270,58,276.43,79v42s-24.69-19.48-38.21-13Z"
       fill="#d1d3d4"
       id="path76" />
    <path
       d="M276.43,121.42a.51.51,0,0,1-.31-.11c-.25-.19-24.62-19.21-37.68-12.9a.48.48,0,0,1-.48,0,.52.52,0,0,1-.24-.43V59.57a.5.5,0,0,1,.48-.5c.32,0,32.25-1.35,38.71,19.74a.77.77,0,0,1,0,.15v42a.5.5,0,0,1-.28.45A.59.59,0,0,1,276.43,121.42Zm-31.77-15.31c4.93,0,10.94,1.82,18,5.44a100.61,100.61,0,0,1,13.31,8.36V79c-5.86-18.9-33.25-19.06-37.21-19v47.14A15.56,15.56,0,0,1,244.66,106.11Z"
       fill="#231f20"
       id="path78" />
    <path
       d="M270,108.56a.5.5,0,0,1-.49-.4c-1.83-8.92-5.42-21.58-7.66-21.79-1.18-.12-1.83,2.74-2.4,5.26-.65,2.85-1.26,5.55-2.84,6.17a2.31,2.31,0,0,1-2.22-.42c-4.93-3.31-10.12-24.24-10.34-25.13a.51.51,0,0,1,.37-.61.5.5,0,0,1,.6.37c.06.21,5.31,21.45,9.92,24.54a1.46,1.46,0,0,0,1.31.33c1.08-.44,1.69-3.11,2.22-5.47.73-3.21,1.4-6.24,3.47-6,3.8.36,7.79,18.88,8.55,22.59a.5.5,0,0,1-.39.59Z"
       fill="#231f20"
       id="path80" />
    <path
       d="M276.43,79s-2.18,17.12-12.84,20.79V137s8-3.62,12.84-16Z"
       fill="#fff"
       id="path82" />
    <path
       d="M263.59,137.47a.5.5,0,0,1-.5-.5V99.75a.51.51,0,0,1,.34-.47c10.24-3.53,12.48-20.22,12.5-20.38a.48.48,0,0,1,.53-.44.51.51,0,0,1,.47.5v42a.57.57,0,0,1,0,.18c-4.83,12.48-12.77,16.17-13.1,16.32A.54.54,0,0,1,263.59,137.47Zm.5-37.37v36c2-1.21,8-5.42,11.84-15.3v-37C274.48,89.18,271.16,97.45,264.09,100.1Z"
       fill="#231f20"
       id="path84" />
    <path
       d="M258.41,69a.45.45,0,0,1-.27-.08,14.42,14.42,0,0,0-5.8-2.09.5.5,0,0,1-.45-.55.51.51,0,0,1,.54-.45,15.38,15.38,0,0,1,6.26,2.25.51.51,0,0,1,.14.7A.52.52,0,0,1,258.41,69Z"
       fill="#231f20"
       id="path86" />
    <path
       d="M258,72.29a.57.57,0,0,1-.28-.08A11.86,11.86,0,0,0,254,70.59a.5.5,0,1,1,.16-1,12.82,12.82,0,0,1,4.11,1.76.5.5,0,0,1,.15.69A.51.51,0,0,1,258,72.29Z"
       fill="#231f20"
       id="path88" />
    <path
       d="M222,107.9l4.94-3.2c1.56-1,3.33-4,4.62-3.86s-1.48,3.69-1.48,3.69,5.22-3.08,6.72-3,2,2.68,1.56,3.42-4.75,2.13-6.43,3.45a73.2,73.2,0,0,1-7,4.07"
       fill="#fff"
       id="path90" />
    <path
       d="M226.44,87.65a24.69,24.69,0,0,1,5.13-2.05c2-.4,4.55-.54,4.09-1.43s-5.2-.27-5.22-.26c2.17-.29,4.22-6.91,4.87-8.52a1.83,1.83,0,0,0,.17-.82.59.59,0,0,0-.55-.54.84.84,0,0,0-.5.28c-3.64,3.35-6.9,6.82-10.7,10C223.35,84.69,226.44,87.65,226.44,87.65Z"
       fill="#fff"
       id="path94" />
  </g>
</svg>
